<?xml version="1.0" encoding="UTF-8" standalone="no"?>
<svg
   viewBox="0 0 24 24"
   fill="none"
   stroke="#e0def4"
   stroke-width="2"
   stroke-linecap="round"
   stroke-linejoin="round"
   version="1.1"
   id="svg6"
   sodipodi:docname="asr.svg"
   inkscape:version="1.4.3 (0d15f75042, 2025-12-25)"
   xml:space="preserve"
   xmlns:inkscape="http://www.inkscape.org/namespaces/inkscape"
   xmlns:sodipodi="http://sodipodi.sourceforge.net/DTD/sodipodi-0.dtd"
   xmlns="http://www.w3.org/2000/svg"
   xmlns:svg="http://www.w3.org/2000/svg"><defs
     id="defs6" /><sodipodi:namedview
     id="namedview6"
     pagecolor="#ffffff"
     bordercolor="#000000"
     borderopacity="0.25"
     inkscape:showpageshadow="2"
     inkscape:pageopacity="0.0"
     inkscape:pagecheckerboard="0"
     inkscape:deskcolor="#d1d1d1"
     inkscape:zoom="6.555469"
     inkscape:cx="22.95793"
     inkscape:cy="38.517458"
     inkscape:window-width="1894"
     inkscape:window-height="1021"
     inkscape:window-x="10"
     inkscape:window-y="43"
     inkscape:window-maximized="1"
     inkscape:current-layer="svg6" /><path
     id="circle1"
     style="fill:none;stroke:#191724;stroke-width:2.5;stroke-linecap:round;stroke-linejoin:round;stroke-dasharray:none;stroke-opacity:1"
     d="M 11.541016 7.4121094 A 3.8917289 3.8917289 0 0 0 7.6503906 11.304688 A 3.8917289 3.8917289 0 0 0 11.541016 15.195312 A 3.8917289 3.8917289 0 0 0 11.982422 15.169922 A 3.8917289 3.8917289 0 0 0 12.388672 15.095703 C 12.739388 14.103908 13.44622 13.44107 14.507812 13.105469 C 14.762213 12.722999 15.043671 12.403942 15.341797 12.144531 A 3.8917289 3.8917289 0 0 0 15.433594 11.304688 A 3.8917289 3.8917289 0 0 0 11.541016 7.4121094 z " /><path
     d="M 11.541166,1.5744931 V 3.5203576"
     id="path1-6"
     style="fill:none;stroke:#191724;stroke-width:2.5;stroke-linecap:round;stroke-linejoin:round;stroke-dasharray:none;stroke-opacity:1" /><path
     d="M 4.6625353,4.4251846 6.0343698,5.7970191"
     id="path3-5"
     style="fill:none;stroke:#191724;stroke-width:2.5;stroke-linecap:round;stroke-linejoin:round;stroke-dasharray:none;stroke-opacity:1" /><path
     d="M 1.8118439,11.303816 H 3.7577084"
     id="path5-5"
     style="fill:none;stroke:#191724;stroke-width:2.5;stroke-linecap:round;stroke-linejoin:round;stroke-dasharray:none;stroke-opacity:1" /><path
     d="M 6.0343698,16.810612 4.6625353,18.182446"
     id="path7-2"
     style="fill:none;stroke:#191724;stroke-width:2.5;stroke-linecap:round;stroke-linejoin:round;stroke-dasharray:none;stroke-opacity:1" /><path
     d="M 18.419797,4.4251846 17.047963,5.7970191"
     id="path8-9"
     style="fill:none;stroke:#191724;stroke-width:2.5;stroke-linecap:round;stroke-linejoin:round;stroke-dasharray:none;stroke-opacity:1" /><path
     style="fill:none;fill-opacity:1;fill-rule:evenodd;stroke:#191724;stroke-width:2.5;stroke-linecap:round;stroke-linejoin:round;stroke-dasharray:none;stroke-opacity:1"
     d="m 12.387404,15.102425 c 0.349995,-0.995083 1.056847,-1.660759 2.120556,-1.997029 3.012698,-4.5293394 9.662594,-0.04118 6.423428,4.261699 0.39117,3.506807 -4.543065,5.490111 -7.144005,2.305846 -5.2750729,1.356807 -6.2075839,-3.922625 -1.399979,-4.570516 z"
     id="path34"
     sodipodi:nodetypes="ccccc" /></svg>
