<?xml version="1.0" encoding="UTF-8" standalone="no"?>
<svg
   viewBox="0 0 24 24"
   fill="none"
   stroke="#e0def4"
   stroke-width="2"
   stroke-linecap="round"
   stroke-linejoin="round"
   version="1.1"
   id="svg7"
   sodipodi:docname="maghrib.svg"
   inkscape:version="1.4.3 (0d15f75042, 2025-12-25)"
   xml:space="preserve"
   xmlns:inkscape="http://www.inkscape.org/namespaces/inkscape"
   xmlns:sodipodi="http://sodipodi.sourceforge.net/DTD/sodipodi-0.dtd"
   xmlns="http://www.w3.org/2000/svg"
   xmlns:svg="http://www.w3.org/2000/svg"><defs
     id="defs7" /><sodipodi:namedview
     id="namedview7"
     pagecolor="#ffffff"
     bordercolor="#000000"
     borderopacity="0.25"
     inkscape:showpageshadow="2"
     inkscape:pageopacity="0.0"
     inkscape:pagecheckerboard="0"
     inkscape:deskcolor="#d1d1d1"
     inkscape:zoom="12.166667"
     inkscape:cx="18.205479"
     inkscape:cy="16.150684"
     inkscape:window-width="1894"
     inkscape:window-height="1021"
     inkscape:window-x="10"
     inkscape:window-y="43"
     inkscape:window-maximized="1"
     inkscape:current-layer="svg7" /><g
     style="fill:none;stroke:#191724;stroke-width:2.45385;stroke-linecap:round;stroke-linejoin:round;stroke-dasharray:none;stroke-opacity:1"
     id="g1"
     transform="matrix(1.0188085,0,0,1.0188085,-0.225702,-0.13845442)"><circle
       cx="12"
       cy="12"
       r="4"
       id="circle1"
       style="stroke-width:2.45385;stroke-dasharray:none;stroke:#191724;stroke-opacity:1" /><path
       d="M 12,2 V 4"
       id="path1-3"
       style="stroke-width:2.45385;stroke-dasharray:none;stroke:#191724;stroke-opacity:1" /><path
       d="M 4.93,4.93 6.34,6.34"
       id="path3-7"
       style="stroke-width:2.45385;stroke-dasharray:none;stroke:#191724;stroke-opacity:1" /><path
       d="M 2,12 H 4"
       id="path5-3"
       style="stroke-width:2.45385;stroke-dasharray:none;stroke:#191724;stroke-opacity:1" /><path
       d="m 20,12 h 2"
       id="path6-5"
       style="stroke-width:2.45385;stroke-dasharray:none;stroke:#191724;stroke-opacity:1" /><path
       d="M 19.07,4.93 17.66,6.34"
       id="path8"
       style="stroke-width:2.45385;stroke-dasharray:none;stroke:#191724;stroke-opacity:1" /></g><path
     style="fill:none;fill-rule:evenodd;stroke:#191724;stroke-width:2.5;stroke-linecap:round;stroke-linejoin:round;stroke-dasharray:none;stroke-opacity:1"
     d="M 16.058803,22.403678 7.3862073,19.52536 c 0,0 3.7208217,-1.238347 0.5035702,-2.644035 -3.2172538,-1.405694 -3.2230679,-1.467214 -1.3734417,-1.526379 1.9478068,0.880466 13.2302432,0.210413 13.2144432,0.05918 0,0 -7.220468,0.449654 -7.457852,1.277966 -0.237385,0.82831 3.046442,1.159632 3.026661,2.248275 -0.01978,1.088636 -2.888188,1.135964 -2.690366,1.632954 0.19782,0.496988 3.449581,1.830372 3.449581,1.830372 z"
     id="path1"
     sodipodi:nodetypes="ccsccssscc" /></svg>
