<?xml version="1.0" encoding="UTF-8" standalone="no"?>
<svg
   viewBox="0 0 24 24"
   fill="none"
   stroke="#e0def4"
   stroke-width="2"
   stroke-linecap="round"
   stroke-linejoin="round"
   version="1.1"
   id="svg2"
   sodipodi:docname="battery-charging.svg"
   inkscape:version="1.4.3 (0d15f75042, 2025-12-25)"
   xml:space="preserve"
   xmlns:inkscape="http://www.inkscape.org/namespaces/inkscape"
   xmlns:sodipodi="http://sodipodi.sourceforge.net/DTD/sodipodi-0.dtd"
   xmlns="http://www.w3.org/2000/svg"
   xmlns:svg="http://www.w3.org/2000/svg"><defs
     id="defs2" /><sodipodi:namedview
     id="namedview2"
     pagecolor="#ffffff"
     bordercolor="#000000"
     borderopacity="0.25"
     inkscape:showpageshadow="2"
     inkscape:pageopacity="0.0"
     inkscape:pagecheckerboard="0"
     inkscape:deskcolor="#d1d1d1"
     inkscape:zoom="24.483572"
     inkscape:cx="12.416489"
     inkscape:cy="11.742567"
     inkscape:window-width="1894"
     inkscape:window-height="1021"
     inkscape:window-x="10"
     inkscape:window-y="43"
     inkscape:window-maximized="1"
     inkscape:current-layer="svg2" /><g
     style="fill:none;stroke:#e0def4;stroke-width:2;stroke-linecap:round;stroke-linejoin:round"
     id="g1"><path
       id="rect1"
       style="fill:#e0def4;fill-opacity:1;stroke:none;stroke-width:2.37406"
       d="M 3.3261719 6.0644531 C 2.0109452 6.0644531 0.953125 7.1242264 0.953125 8.4394531 L 0.953125 15.560547 C 0.953125 16.875774 2.0109452 17.935547 3.3261719 17.935547 L 17.572266 17.935547 C 18.887492 17.935547 19.945312 16.875774 19.945312 15.560547 L 19.945312 8.4394531 C 19.945312 7.1242264 18.887492 6.0644531 17.572266 6.0644531 L 3.3261719 6.0644531 z M 11.105469 7.0839844 A 0.70242301 0.70242301 0 0 1 11.541016 7.2011719 A 0.70242301 0.70242301 0 0 1 11.736328 8.1757812 L 9.6542969 11.296875 L 12.556641 11.296875 A 0.70249325 0.70249325 0 0 1 13.140625 12.388672 L 10.332031 16.603516 A 0.70242301 0.70242301 0 0 1 9.3574219 16.798828 A 0.70242301 0.70242301 0 0 1 9.1621094 15.824219 L 11.244141 12.703125 L 8.3417969 12.703125 A 0.70249325 0.70249325 0 0 1 7.7578125 11.611328 L 10.566406 7.3964844 A 0.70242301 0.70242301 0 0 1 11.105469 7.0839844 z " /><line
       x1="22"
       y1="11"
       x2="22"
       y2="13"
       id="line1" /></g></svg>
