<?xml version="1.0" encoding="UTF-8" standalone="no"?>
<svg
   width="100"
   height="100"
   viewBox="0 0 100 100"
   version="1.1"
   id="svg3"
   sodipodi:docname="disk.svg"
   xml:space="preserve"
   inkscape:version="1.4.3 (0d15f75042, 2025-12-25)"
   xmlns:inkscape="http://www.inkscape.org/namespaces/inkscape"
   xmlns:sodipodi="http://sodipodi.sourceforge.net/DTD/sodipodi-0.dtd"
   xmlns="http://www.w3.org/2000/svg"
   xmlns:svg="http://www.w3.org/2000/svg"><defs
     id="defs3" /><sodipodi:namedview
     id="namedview3"
     pagecolor="#ffffff"
     bordercolor="#000000"
     borderopacity="0.25"
     inkscape:showpageshadow="2"
     inkscape:pageopacity="0.0"
     inkscape:pagecheckerboard="0"
     inkscape:deskcolor="#d1d1d1"
     inkscape:zoom="6.2932504"
     inkscape:cx="43.300359"
     inkscape:cy="57.760295"
     inkscape:window-width="1894"
     inkscape:window-height="1021"
     inkscape:window-x="10"
     inkscape:window-y="43"
     inkscape:window-maximized="1"
     inkscape:current-layer="svg3" /><g
     id="g10"
     transform="matrix(0.99430253,0,0,0.99430253,0.28487336,-6.0100019)"><path
       d="M 36.641472,83.42976 C 25.767646,81.456741 16.284078,74.385739 11.395149,64.605956 8.7753592,59.365347 7.6650395,54.776381 7.5827463,48.84925 7.3121729,29.361297 23.24099,13.316092 42.858156,13.316092 c 19.533923,0 35.30341,15.769487 35.30341,35.303416 0,17.182695 -12.286863,31.794913 -29.268855,34.808133 -3.355802,0.595441 -8.975938,0.596415 -12.251239,0.0022 z M 24.010881,75.180323 C 23.881232,74.95135 23.460235,74.400176 23.075334,73.955499 l -0.699816,-0.808508 1.036748,0.715403 c 0.570209,0.393478 1.130935,0.621218 1.24605,0.506099 0.27194,-0.271935 -0.448549,-1.144054 -0.777294,-0.940876 -0.137943,0.08525 -0.533111,-0.178682 -0.878153,-0.586509 l -0.627351,-0.741509 0.708213,0.597213 c 0.585054,0.49336 0.739805,0.514895 0.889866,0.123849 0.09991,-0.260358 0.01353,-0.641503 -0.191985,-0.847003 -0.809223,-0.809224 0.280723,-0.318063 1.156827,0.521299 1.105693,1.059318 1.24271,0.586361 0.210345,-0.726079 l -0.723766,-0.920126 0.807028,0.430162 c 0.737139,0.392904 0.767447,0.38217 0.349941,-0.123944 -0.251405,-0.304759 -0.307222,-0.554106 -0.124045,-0.554106 0.183177,0 0.519626,0.224814 0.747663,0.499581 0.866529,1.044105 1.036607,0.445026 0.189106,-0.666103 -1.015832,-1.331828 -0.875927,-1.462943 0.508845,-0.476898 0.95603,0.680756 1.34129,0.484527 0.567643,-0.289124 -0.219813,-0.219813 -0.268626,-0.399662 -0.108473,-0.399662 0.160158,0 -0.07215,-0.405308 -0.516228,-0.900686 -0.716569,-0.799337 -0.726934,-0.846183 -0.0921,-0.416313 0.393427,0.266406 1.20732,0.851062 1.808653,1.299238 1.124813,0.83833 1.061334,0.429088 -0.140427,-0.905288 -0.729674,-0.810195 -1.154163,-2.143918 -0.462078,-1.451837 0.697865,0.697864 1.018673,0.38367 0.380624,-0.372784 -0.569261,-0.674892 -0.541295,-0.669123 0.281432,0.05807 0.917352,0.81082 1.050329,0.744472 0.919464,-0.458774 -0.06343,-0.583227 -0.01046,-0.60045 0.512688,-0.166523 0.552978,0.458709 0.555362,0.429669 0.04568,-0.55621 -0.572479,-1.10734 -0.409892,-1.687488 0.306334,-1.093077 0.651008,0.540293 1.200049,0.05996 0.795495,-0.695978 -0.499224,-0.93282 -0.41204,-1.065257 0.415415,-0.631045 0.743496,0.390153 0.744438,0.387685 0.120561,-0.315086 -0.66344,-0.747332 -0.496612,-1.250244 0.765357,-2.307175 0.441547,-0.369808 0.413842,-0.50914 -0.229069,-1.152051 -0.642911,-0.642912 -0.782244,-0.670618 -1.152054,-0.229068 -0.972905,1.16164 -1.55224,1.411547 -2.148298,0.926694 -0.49209,-0.400279 -0.534786,-0.384651 -0.343505,0.125743 0.25093,0.669559 0.110369,0.715504 -0.761498,0.248891 -0.755916,-0.404555 -1.236273,0.144492 -0.695985,0.795498 0.637979,0.768714 -2.71e-4,0.841334 -1.249277,0.142148 l -1.217042,-0.681302 0.666103,0.73992 0.666101,0.739928 -0.666101,-0.07336 c -1.219923,-0.134376 -1.287708,-0.0037 -0.474369,0.916843 0.727182,0.822725 0.732953,0.850691 0.05805,0.28143 -0.756449,-0.638049 -1.070649,-0.317243 -0.372783,0.380623 0.692082,0.69208 -0.641638,0.267594 -1.451834,-0.462077 -1.334379,-1.201765 -1.743619,-1.265239 -0.905292,-0.140427 0.448177,0.601329 1.032833,1.415226 1.299238,1.808653 0.429873,0.63484 0.383029,0.624475 -0.416315,-0.0921 -0.495376,-0.444083 -0.900686,-0.688016 -0.900686,-0.542064 0,0.145951 -0.228429,0.07578 -0.507626,-0.155931 -0.799023,-0.663128 -0.902551,-0.182281 -0.163139,0.757739 0.990205,1.258837 0.819157,1.394329 -0.494912,0.392039 -1.243935,-0.948798 -1.542841,-0.7936 -0.582835,0.302614 0.555616,0.634456 0.555253,0.655476 -0.0077,0.450034 -0.514666,-0.187809 -0.54129,-0.123472 -0.207208,0.500772 l 0.383339,0.716273 -0.920124,-0.723764 c -1.312437,-1.032369 -1.785396,-0.895351 -0.726078,0.210341 1.069977,1.116813 1.198798,1.766998 0.171589,0.866021 -0.397847,-0.348954 -0.61381,-0.447116 -0.479923,-0.218144 0.139232,0.238112 0.07037,0.416312 -0.160895,0.416312 -0.248879,0 -0.160403,0.288101 0.230132,0.749372 l 0.634459,0.749363 -0.741511,-0.62735 c -0.407831,-0.345042 -0.671757,-0.740211 -0.586507,-0.878158 0.08526,-0.137944 -0.05481,-0.424935 -0.311253,-0.637757 -0.802966,-0.666408 -0.892005,0.177176 -0.125416,1.188226 l 0.724123,0.955039 -0.811922,-0.699819 c -1.444293,-1.244879 -1.8317,-1.292335 -0.947105,-0.116017 0.475185,0.631886 1.059016,1.523565 1.297405,1.98151 l 0.433433,0.832633 -0.716608,-0.636314 c -0.394131,-0.349963 -0.800527,-0.552378 -0.903101,-0.449802 -0.102571,0.102571 0.887596,1.260579 2.20037,2.57336 1.312777,1.312777 2.470787,2.302945 2.573361,2.200369 0.102572,-0.102572 -0.09985,-0.507666 -0.449808,-0.900201 l -0.636308,-0.713711 0.999153,0.534553 c 0.549535,0.294009 1.373835,0.835737 1.831781,1.20384 0.975805,0.784372 1.123058,0.833496 0.802735,0.267777 z m 8.078626,-13.39066 c 0,-0.266709 -0.127338,-0.406223 -0.282976,-0.310035 -0.155635,0.09619 -0.19675,0.314405 -0.09136,0.484927 0.26931,0.435756 0.374335,0.386689 0.374336,-0.174892 z m 15.582361,-0.53702 c 9.132371,-3.416857 11.635386,-15.211395 4.699965,-22.146818 -5.356171,-5.35617 -13.671182,-5.35617 -19.027352,0 -5.244691,5.244689 -5.368659,13.397953 -0.286335,18.831374 1.693944,1.810961 4.678189,3.479832 7.135603,3.990424 2.046054,0.425125 5.330078,0.128706 7.478119,-0.67498 z M 41.411047,50.008742 c -1.194905,-1.320352 -0.276514,-3.38755 1.504977,-3.38755 1.705655,0 2.5951,2.301759 1.331375,3.445414 -0.804375,0.727952 -2.150043,0.700492 -2.836352,-0.05785 z m -7.87832,11.817888 c 0,-0.06322 -0.337214,-0.40041 -0.749365,-0.749364 l -0.749364,-0.634455 0.63446,0.749363 c 0.596235,0.704216 0.864269,0.900984 0.864269,0.634456 z m -3.531343,-2.160939 c 0.09434,-0.152651 -0.04009,-0.277546 -0.298743,-0.277546 -0.258651,0 -0.393086,0.124895 -0.298744,0.277546 0.09434,0.152651 0.228777,0.277539 0.298744,0.277539 0.06997,0 0.204402,-0.124888 0.298743,-0.277539 z m 0.866936,-0.514308 c 0,-0.06917 -0.262278,-0.331433 -0.582841,-0.582842 -0.528238,-0.414265 -0.540018,-0.402492 -0.125745,0.125751 0.435087,0.554782 0.708586,0.731203 0.708586,0.457091 z M 55.847146,38.835269 c 0,-0.06917 -0.262277,-0.331433 -0.582838,-0.582836 -0.528239,-0.414272 -0.54002,-0.402491 -0.125748,0.125746 0.435088,0.55478 0.708586,0.73121 0.708586,0.45709 z m -0.05556,-1.050631 c 0.421008,0.08108 0.653997,0.0043 0.541015,-0.178666 -0.109137,-0.176596 -0.375418,-0.221707 -0.591734,-0.100254 -0.287577,0.161463 -0.285186,0.104048 0.0088,-0.213585 0.330174,-0.356613 0.505355,-0.35045 0.978248,0.0344 0.509538,0.414688 0.550829,0.40152 0.357621,-0.114028 -0.250932,-0.669559 -0.11037,-0.715497 0.761498,-0.248891 0.755915,0.404554 1.236272,-0.144485 0.695982,-0.795491 -0.637979,-0.768714 2.74e-4,-0.841342 1.249278,-0.142148 l 1.217007,0.681304 -0.634458,-0.704906 c -0.493426,-0.548219 -0.526736,-0.704906 -0.149868,-0.704906 0.266525,0 0.654046,0.169455 0.861169,0.37658 0.660752,0.660754 0.287582,-0.600153 -0.427073,-1.44302 l -0.648915,-0.765346 0.749363,0.634463 c 0.756086,0.640147 1.071322,0.320291 0.372785,-0.378241 -0.692083,-0.692088 0.641635,-0.267602 1.451833,0.462076 1.334378,1.201758 1.743618,1.26524 0.905292,0.140428 -0.448177,-0.601336 -1.032834,-1.415227 -1.299239,-1.808653 -0.429872,-0.634841 -0.383029,-0.624476 0.416315,0.0921 0.495376,0.444083 0.900686,0.676387 0.900686,0.516231 0,-0.160157 0.179848,-0.111343 0.399661,0.108469 0.773647,0.77365 0.969875,0.388389 0.289118,-0.567642 -0.986044,-1.384771 -0.854925,-1.524677 0.476899,-0.508843 1.111132,0.847499 1.710208,0.677419 0.666103,-0.189109 -0.274768,-0.228038 -0.499578,-0.564486 -0.499578,-0.747665 0,-0.183173 0.249347,-0.127356 0.554104,0.124046 0.506115,0.41751 0.516848,0.387198 0.123945,-0.349941 l -0.430158,-0.807025 0.920124,0.723764 c 1.312436,1.032366 1.785396,0.895351 0.726077,-0.210342 -1.069977,-1.11682 -1.198797,-1.767005 -0.171587,-0.866027 0.397845,0.348954 0.613809,0.447116 0.479923,0.218144 -0.139233,-0.238113 -0.07036,-0.416314 0.160893,-0.416314 0.24888,0 0.160404,-0.2881 -0.230132,-0.749363 l -0.634459,-0.749363 0.741512,0.627349 c 0.40783,0.345042 0.673642,0.737163 0.590692,0.871377 -0.08295,0.134215 0.134033,0.501817 0.482186,0.816889 0.82084,0.742853 0.753667,0.0238 -0.126091,-1.349712 l -0.61868,-0.965903 0.797396,0.699817 c 1.416918,1.24353 1.817996,1.29343 0.932576,0.116019 -0.475184,-0.631887 -1.059016,-1.523573 -1.297403,-1.981513 l -0.433434,-0.832631 0.716606,0.636306 c 0.394133,0.349971 0.800529,0.552386 0.903102,0.449811 0.10257,-0.102572 -0.887595,-1.260588 -2.200369,-2.573362 -1.312776,-1.312775 -2.470789,-2.302942 -2.573362,-2.200366 -0.102571,0.102572 0.09985,0.508965 0.449808,0.903096 l 0.636309,0.716606 -0.832628,-0.433427 c -0.457945,-0.238387 -1.349626,-0.822224 -1.981515,-1.297409 -1.176569,-0.884783 -1.128546,-0.494166 0.11602,0.943693 l 0.699816,0.808497 -1.059031,-0.731268 c -1.217269,-0.84053 -1.77978,-0.454834 -0.707644,0.485216 0.393523,0.345043 0.605953,0.44001 0.472066,0.211037 -0.379258,-0.648602 -0.03941,-0.490536 0.660151,0.307038 0.377706,0.430626 0.43466,0.60548 0.140738,0.432077 -0.271548,-0.160192 -0.759238,-0.310825 -1.083752,-0.334734 -0.551144,-0.04058 -0.553616,-0.0037 -0.0375,0.567068 0.856637,0.946575 0.09996,0.719561 -0.947947,-0.284391 -1.105692,-1.059319 -1.24271,-0.586361 -0.210344,0.726079 l 0.723766,0.920118 -0.716272,-0.383338 c -0.624242,-0.334083 -0.688583,-0.307458 -0.500769,0.207212 0.205439,0.562953 0.184417,0.563317 -0.450036,0.0077 -1.096218,-0.960009 -1.251415,-0.661101 -0.302617,0.582834 1.015832,1.331828 0.875929,1.462944 -0.508845,0.476899 -0.956031,-0.680751 -1.34129,-0.484528 -0.567642,0.289123 0.219813,0.219813 0.268625,0.399662 0.108471,0.399662 -0.160158,0 0.07214,0.405308 0.51623,0.900686 0.716568,0.799338 0.726932,0.846183 0.0921,0.416313 -0.393424,-0.266405 -1.207319,-0.851061 -1.808652,-1.299239 -1.124814,-0.838329 -1.061334,-0.429086 0.140427,0.905289 0.729676,0.810197 1.154162,2.143919 0.462079,1.451838 -0.697865,-0.697866 -1.018674,-0.383664 -0.380624,0.372783 0.569261,0.674894 0.541294,0.669122 -0.281432,-0.05807 -0.917352,-0.810819 -1.05033,-0.744471 -0.919462,0.458774 0.06343,0.583226 0.01045,0.600452 -0.512691,0.166523 -0.552978,-0.458708 -0.555362,-0.429668 -0.04568,0.55621 0.572478,1.107347 0.409893,1.687496 -0.306332,1.093078 -0.651009,-0.540294 -1.20005,-0.05996 -0.795496,0.695984 0.460812,0.861035 0.420606,1.013185 -0.20437,0.773353 -0.451118,-0.173105 -0.479564,-0.09677 -0.175599,0.471186 0.298833,0.558375 0.214445,0.837757 -0.479091,1.58609 -0.800631,0.863894 -0.813836,0.939258 -0.269921,1.540273 0.509179,0.562634 0.631945,0.577595 1.119485,0.136372 0.301174,-0.272561 0.880343,-0.431476 1.287043,-0.353158 z m -2.275797,-1.280721 c 0,-0.06917 -0.262277,-0.331441 -0.582839,-0.582841 -0.52824,-0.414274 -0.540018,-0.402493 -0.125747,0.125742 0.435087,0.554782 0.708586,0.731212 0.708586,0.457099 z m 0.485351,-0.850394 c 0.105396,-0.17052 0.06428,-0.388737 -0.09136,-0.484926 -0.155637,-0.09619 -0.282977,0.04334 -0.282977,0.310035 0,0.561582 0.105029,0.610649 0.374336,0.174891 z"
       style="fill:#ea9d34;fill-opacity:1;stroke-width:0.333052"
       id="path1-3" /><path
       id="path1-6"
       style="fill:#ea9d34;fill-opacity:1;stroke-width:0.29115"
       d="m 86.563758,25.228989 c -0.218808,0.01746 -0.31924,0.109929 -0.385354,0.282229 -0.118464,0.308667 -0.441914,0.37315 -1.21576,0.24243 l -1.054745,-0.179108 -0.691102,2.695659 -0.689292,2.697469 0.888301,0.73995 0.886491,0.741758 -0.604261,2.482176 c -0.577734,2.372315 -0.650716,2.50105 -1.669862,2.93628 -0.704617,0.300912 -1.233009,0.806537 -1.557693,1.490753 -0.776806,1.63699 -0.589086,2.736984 0.709195,4.166513 0.526178,0.579323 0.528636,0.723195 0.06332,4.220788 -0.352852,2.651934 -0.476005,5.688659 -0.457719,11.338051 0.02297,7.078815 -0.02239,7.823874 -0.549987,9.025935 -0.582378,1.326904 -2.73349,3.784778 -3.312586,3.784778 -0.173518,0 -0.893743,0.58908 -1.601112,1.309838 -0.768934,0.783487 -1.466783,1.255605 -1.734992,1.17234 -0.615606,-0.191048 -0.835084,-0.01 -2.786118,2.321161 -0.938145,1.120926 -1.777748,2.103569 -1.86706,2.183666 -1.043748,0.934972 -2.34649,2.763786 -2.34649,3.294493 0,0.996252 1.528259,2.348162 2.45504,2.171001 0.555838,-0.106253 1.168372,0.173131 2.420666,1.10721 1.842951,1.374644 2.17091,1.482462 2.668521,0.882873 0.269299,-0.324502 8.05e-4,-0.703541 -1.34783,-1.908671 L 71.098995,82.923334 73.8037,80.394118 c 1.694718,-1.586243 2.701681,-2.748573 2.695659,-3.113577 -0.0046,-0.320255 0.508242,-1.105305 1.139776,-1.745846 0.631536,-0.640527 1.153982,-1.348583 1.161485,-1.572166 0.0079,-0.2236 0.614233,-1.046714 1.346021,-1.829069 0.731804,-0.782338 1.675736,-2.170797 2.098634,-3.086439 l 0.768896,-1.666243 0.02171,-9.170669 c 0.02582,-10.810933 0.324486,-13.469696 1.56312,-13.945062 1.560008,-0.598727 2.368199,-1.700385 2.368199,-3.227554 0,-0.981834 -0.582508,-2.312857 -1.257371,-2.872958 -0.36547,-0.3033 -0.329174,-0.646435 0.26233,-2.56359 0.375658,-1.217522 0.755873,-2.286428 0.844881,-2.375436 0.08905,-0.08905 0.704398,-0.235124 1.36773,-0.32565 1.197015,-0.163196 1.209298,-0.178874 1.7169,-1.981039 1.008836,-3.581826 1.009791,-3.511029 -0.07598,-3.80106 -0.722614,-0.193013 -0.95038,-0.405718 -0.904585,-0.841264 0.04923,-0.46893 -0.197383,-0.641285 -1.260989,-0.884682 -0.541217,-0.12382 -0.877548,-0.180287 -1.096354,-0.162825 z m 3.10453,25.301205 c -0.184697,-0.0028 -0.419693,0.01356 -0.660347,0.04884 l -0.875636,0.12845 v 4.479499 4.479498 h -1.165104 c -0.970499,0 -1.165104,0.0973 -1.165104,0.582552 0,0.54648 0.195164,0.580743 3.155188,0.580743 1.734765,0 3.231397,-0.07786 3.327059,-0.17368 0.428715,-0.4287 -0.210562,-0.989615 -1.127112,-0.989615 h -0.987804 v -4.465025 c 0,-2.455369 -0.06375,-4.52877 -0.142925,-4.607948 -0.03957,-0.03951 -0.173518,-0.06053 -0.358215,-0.06332 z m -0.69472,10.590865 c -2.977404,0 -3.171471,0.03589 -3.171471,0.582552 0,0.485277 0.194605,0.582552 1.165104,0.582552 h 1.165104 v 4.513872 4.512064 h 1.018561 1.018562 v -4.512064 -4.513872 h 0.971522 c 1.111146,0 1.383559,-0.177514 1.161486,-0.756232 -0.121138,-0.315623 -0.876626,-0.408872 -3.328868,-0.408872 z M 72.577085,75.793406 c 0.03879,-0.0048 0.08268,0.006 0.12845,0.03437 0.162755,0.10057 0.220646,0.304943 0.128451,0.4541 -0.249591,0.403825 -0.423344,0.328684 -0.423344,-0.182725 0,-0.179491 0.06731,-0.293488 0.166443,-0.30575 z m 0.779751,0.817743 c 0.06005,-0.0052 0.153863,0.05254 0.271375,0.170063 0.189562,0.189491 0.276392,0.41123 0.193581,0.493902 -0.194312,0.19431 -0.539132,-0.148699 -0.539132,-0.537322 0,-0.07981 0.02748,-0.122584 0.07418,-0.126643 z m 14.704912,0.0091 c -0.158597,-0.001 -0.320679,0.0039 -0.486667,0.01628 -1.370064,0.101614 -1.703402,0.256911 -2.547307,1.177768 -1.847411,2.01588 -1.239542,5.202332 1.212142,6.351986 2.692435,1.262541 5.726015,-0.672419 5.726015,-3.652709 0,-2.38224 -1.525242,-3.878079 -3.904183,-3.893328 z m -16.429049,0.336504 c 0.113168,-0.006 0.19539,0.112517 0.19539,0.307558 -1.6e-5,0.511409 -0.175561,0.586568 -0.425154,0.182726 -0.09207,-0.149065 -0.0343,-0.35345 0.128451,-0.4541 0.0356,-0.022 0.06963,-0.03448 0.101313,-0.03618 z m 2.941706,0.582552 c 0.114911,-0.0063 0.230483,0.0495 0.294896,0.153779 0.09375,0.151681 0.04675,0.351367 -0.104933,0.445056 -0.151681,0.09374 -0.353175,0.04675 -0.446865,-0.104932 -0.09375,-0.151681 -0.04675,-0.351365 0.104932,-0.445055 0.0474,-0.0293 0.09974,-0.04599 0.15197,-0.04884 z m -1.872488,0.177299 c 0.160129,0 0.289467,0.131148 0.289467,0.291276 0,0.160129 -0.129323,0.291275 -0.289467,0.291275 -0.160127,0 -0.291275,-0.131146 -0.291275,-0.291275 0,-0.160128 0.131148,-0.291276 0.291275,-0.291276 z m 15.283846,0 c 2.371951,0 3.595699,2.756712 2.04255,4.602521 -1.120533,1.331678 -2.748019,1.411348 -4.056153,0.199009 -1.737198,-1.609984 -0.398986,-4.80153 2.013603,-4.80153 z m -17.322777,0.291244 c 0.160128,0 0.291275,0.131149 0.291275,0.291276 0,0.160129 -0.131147,0.291276 -0.291275,0.291276 -0.160129,0 -0.291276,-0.131147 -0.291276,-0.291276 0,-0.160127 0.131133,-0.291276 0.291276,-0.291276 z m 2.91095,0.582552 c 0.160127,0 0.291276,0.131148 0.291276,0.291276 0,0.160128 -0.131134,0.291276 -0.291276,0.291276 -0.160129,0 -0.291276,-0.131148 -0.291276,-0.291276 0,-0.160128 0.131147,-0.291276 0.291276,-0.291276 z m -2.055214,0.291276 c 0.150668,0 0.355117,0.131149 0.4541,0.291276 0.09896,0.160128 -0.02355,0.291276 -0.273184,0.291276 -0.249653,0 -0.454101,-0.131148 -0.454101,-0.291276 0,-0.160127 0.122517,-0.291276 0.273185,-0.291276 z m -2.020841,0.291276 c 0.160129,0 0.291276,0.131131 0.291276,0.291276 0,0.160127 -0.131147,0.291275 -0.291276,0.291275 -0.160129,0 -0.291275,-0.131148 -0.291275,-0.291275 0,-0.160129 0.131146,-0.291276 0.291275,-0.291276 z m 3.041211,0.680246 c 0.04649,-0.0046 0.102777,0.0099 0.162825,0.04704 0.160129,0.09897 0.289467,0.238803 0.289467,0.309368 0,0.07073 -0.129323,0.128451 -0.289467,0.128451 -0.160127,0 -0.291275,-0.139797 -0.291275,-0.309368 0,-0.106069 0.05097,-0.167827 0.12845,-0.175488 z m -1.876106,0.193581 c 0.160128,0 0.291275,0.131135 0.291275,0.291277 0,0.160127 -0.131147,0.291276 -0.291275,0.291276 -0.160129,0 -0.291276,-0.131149 -0.291276,-0.291276 0,-0.160128 0.131133,-0.291277 0.291276,-0.291277 z m 0.873827,0.873829 c 0.160128,0 0.291276,0.131148 0.291276,0.291276 0,0.160127 -0.131148,0.291275 -0.291276,0.291275 -0.160128,0 -0.291276,-0.131132 -0.291276,-0.291275 0,-0.160114 0.131132,-0.291276 0.291276,-0.291276 z" /></g><rect
     style="fill:none;fill-opacity:1;fill-rule:evenodd;stroke:#191724;stroke-width:4.973;stroke-linecap:round;stroke-linejoin:round;stroke-dasharray:none;stroke-opacity:1"
     id="rect10"
     width="95.027199"
     height="95.027199"
     x="2.486402"
     y="2.4864025"
     rx="1.9005439"
     ry="0" /><path
     d="m 51.320386,90.96787 c 0,-1.652379 -0.360928,-3.452262 -0.676891,-3.375347 -0.108962,0.02653 -0.304425,0.579451 -0.434316,1.228725 l -0.236198,1.180501 -0.111793,-1.115901 c -0.07561,-0.754889 -0.191452,-1.000378 -0.358169,-0.75881 l -0.246437,0.357086 -0.283693,-0.267814 c -0.475534,-0.448908 -0.527312,-0.458785 -0.557306,-0.106326 -0.0172,0.202475 -0.177312,0.317719 -0.39569,0.284866 -0.234302,-0.03525 -0.368741,0.244897 -0.372331,0.775861 -0.0075,1.141604 -0.695854,0.851245 -0.780899,-0.329501 -0.03516,-0.490997 -0.133116,-0.754759 -0.217238,-0.586137 -0.112692,0.225869 -0.240571,0.272874 -0.485763,0.178543 -0.285561,-0.109858 -0.338847,-0.109024 -0.375007,0.0059 -0.02305,0.07366 -0.174289,0.03348 -0.335809,-0.08927 -0.197814,-0.150363 -0.324362,0.06808 -0.387954,0.669541 l -0.09435,0.89272 -0.314718,-1.160538 C 44.482728,88.113686 44.202631,87.310238 44.033393,86.96654 l -0.307762,-0.624904 -0.08973,0.580268 c -0.04939,0.31915 -0.221867,0.6807 -0.383369,0.803449 -0.247099,0.18784 -0.303464,0.159566 -0.355936,-0.178545 -0.04827,-0.310971 -0.133532,-0.361388 -0.377509,-0.223179 -0.275768,0.156231 -0.325793,0.145075 -0.40024,-0.08927 -0.120126,-0.378247 -0.586088,0.906247 -0.696252,1.919348 -0.08889,0.81738 -0.103044,0.830309 -0.391766,0.357089 -0.164777,-0.270049 -0.423973,-0.973066 -0.575979,-1.562262 -0.220261,-0.8539 -0.320986,-0.985986 -0.496392,-0.650972 -0.232282,0.443635 -0.739859,0.683928 -0.739859,0.350259 0,-0.166857 -0.107486,-0.182558 -0.71122,-0.103905 -0.636996,0.08299 -0.726293,0.05768 -0.855161,-0.242357 -0.07914,-0.184261 -0.192849,0.106882 -0.252632,0.646972 -0.1066,0.96277 -0.115174,0.971508 -0.439843,0.446362 -0.182121,-0.294601 -0.531924,-0.83693 -0.777338,-1.205175 l -0.446209,-0.669553 -0.296127,0.401726 c -0.162856,0.220946 -0.414979,0.622669 -0.560273,0.892718 -0.324732,0.603621 -0.645503,0.422115 -1.002393,-0.567169 -0.283731,-0.786616 -0.842106,-0.767984 -0.945047,0.03153 l -0.06322,0.490994 -0.251495,-0.446358 c -0.196246,-0.348319 -0.264153,-0.381476 -0.30911,-0.150957 -0.03154,0.162471 -0.214987,0.271726 -0.407316,0.242787 -0.204371,-0.03075 -0.403104,0.198904 -0.478246,0.552683 -0.111699,0.525918 -0.137953,0.494399 -0.200376,-0.240336 -0.06574,-0.774735 -0.117348,-0.829809 -0.614767,-0.656924 -0.432223,0.150211 -0.563138,0.595885 -0.641768,2.184711 l -0.09883,1.996009 -0.281526,-1.517625 C 29.430821,88.899263 29.183283,87.874868 29.0356,87.45752 l -0.268543,-0.758812 -0.199162,1.249808 -0.199205,1.249807 -0.133572,-1.205171 c -0.111565,-1.006963 -0.169278,-1.107256 -0.350877,-0.609808 -0.298554,0.817841 -0.767435,0.869034 -0.767435,0.08379 0,-0.382005 -0.141223,-0.623804 -0.346336,-0.592944 -0.190466,0.02866 -0.346328,0.537649 -0.346328,1.131088 0,0.59344 -0.09168,1.101298 -0.203752,1.128575 -0.112075,0.02727 -0.215338,-0.168005 -0.229492,-0.433961 -0.01876,-0.35258 -0.111136,-0.435196 -0.340981,-0.305014 -0.231399,0.131106 -0.328844,0.04809 -0.366721,-0.312451 -0.06751,-0.643179 -0.66857,-0.342284 -0.713273,0.357089 -0.04807,0.7527 -0.733593,0.362713 -0.784529,-0.446361 -0.05961,-0.946583 -0.598819,-1.310445 -0.727614,-0.490996 l -0.09821,0.624905 -0.243425,-0.535632 C 22.56889,87.26744 22.43395,87.161619 22.374542,87.323617 c -0.0975,0.265912 -0.100307,0.26623 -0.391841,0.04463 -0.213352,-0.162179 -0.309369,-0.05237 -0.351284,0.401724 -0.03154,0.343699 -0.194218,0.785596 -0.361104,0.981992 -0.253301,0.298113 -0.311313,0.224391 -0.35121,-0.44636 -0.02642,-0.441895 -0.207747,-0.863706 -0.40329,-0.937356 -0.273387,-0.10299 -0.358063,-0.07208 -0.366722,0.133907 -0.0085,0.190086 -0.105245,0.231668 -0.335176,0.143269 -0.260305,-0.100072 -0.358947,-0.09131 -0.501933,0.04465 -0.09788,0.09305 -0.197109,0.01854 -0.220504,-0.165588 -0.02343,-0.184123 -0.197065,-0.334769 -0.386009,-0.334769 -0.188899,0 -0.410032,-0.13056 -0.491407,-0.290136 -0.08137,-0.159572 -0.17431,0.0279 -0.206577,0.416605 -0.07116,0.85622 -0.484326,0.823477 -0.774436,-0.06137 l -0.211609,-0.645373 -0.623939,0.490996 c -0.343174,0.27005 -0.692963,0.571343 -0.777303,0.669542 -0.08435,0.09819 -0.184132,-0.06249 -0.221681,-0.357091 -0.07533,-0.590147 -0.639858,-1.082465 -0.767845,-0.669537 -0.06519,0.210258 -0.08537,0.207675 -0.349118,-0.04464 -0.274557,-0.262701 -0.281711,-0.260994 -0.373248,0.08927 -0.05932,0.227034 -0.151491,0.283451 -0.252967,0.154902 -0.0878,-0.111201 -0.299568,-0.181133 -0.470573,-0.155404 -0.478608,0.07201 -1.46714,-0.212071 -1.495998,-0.429917 -0.02492,-0.187926 -0.03627,-0.188462 -0.34098,-0.01593 -0.214566,0.121563 -0.327112,0.135808 -0.352604,0.04465 -0.02864,-0.102574 -0.166167,-0.09245 -0.587632,0.0433 -0.5438845,0.175171 -0.55269,0.174913 -0.7645442,-0.02232 -0.2316237,-0.215614 -1.0527113,-0.26899 -1.3528367,-0.08795 -0.1017156,0.06137 -0.1849694,-0.0491 -0.1849694,-0.245497 0,-0.196397 0.083224,-0.306872 0.1849694,-0.245499 0.3001254,0.18105 1.121213,0.127675 1.3528347,-0.08793 0.2118515,-0.197234 0.2206584,-0.197493 0.7645442,-0.02233 0.42147,0.135753 0.55895,0.145883 0.587632,0.0433 0.02567,-0.09118 0.138043,-0.07693 0.352604,0.04463 0.304561,0.172523 0.31604,0.171986 0.34098,-0.01593 0.0289,-0.217847 1.01739,-0.501923 1.495998,-0.429918 0.171,0.02573 0.382746,-0.0442 0.470573,-0.155405 0.101474,-0.128549 0.193644,-0.07213 0.252967,0.154904 0.09152,0.350264 0.09868,0.351969 0.373248,0.08927 0.263746,-0.252311 0.283955,-0.254897 0.349118,-0.04465 0.127989,0.412929 0.692554,-0.07939 0.767845,-0.669539 0.03757,-0.294595 0.137293,-0.455287 0.221681,-0.357087 0.08435,0.0982 0.434129,0.399492 0.777303,0.669541 l 0.623939,0.490997 0.211609,-0.645374 c 0.283916,-0.866002 0.705683,-0.924955 0.758266,-0.106002 0.02343,0.364155 0.121952,0.581755 0.21898,0.483558 0.09703,-0.0982 0.32542,-0.21671 0.507539,-0.263354 0.182101,-0.04665 0.342739,-0.227421 0.356893,-0.401723 0.02052,-0.25031 0.08705,-0.279392 0.317283,-0.138371 l 0.291544,0.178543 0.190244,-0.178543 c 0.122435,-0.114919 0.207373,-0.06721 0.238401,0.133906 0.03663,0.236682 0.134337,0.279981 0.403617,0.178545 0.19554,-0.07364 0.377026,-0.49546 0.403291,-0.937356 0.03991,-0.670752 0.09791,-0.744472 0.351209,-0.44636 0.166894,0.196396 0.329381,0.638294 0.361104,0.981992 0.04193,0.454097 0.137907,0.5639 0.351285,0.401724 0.291541,-0.221595 0.294332,-0.221278 0.391839,0.04465 0.05943,0.161995 0.19435,0.05618 0.341604,-0.267815 l 0.243423,-0.535633 0.09821,0.624905 c 0.120609,0.767553 0.646314,0.489154 0.758528,-0.401724 0.101313,-0.804171 0.638099,-1.202007 0.722701,-0.535633 0.08993,0.70879 0.677662,0.990782 0.744187,0.357091 0.03693,-0.35192 0.137473,-0.440425 0.354911,-0.312454 0.226265,0.133172 0.342261,0.05378 0.456456,-0.312452 0.108331,-0.347363 0.186669,-0.216788 0.267781,0.44636 0.136723,1.118032 0.21439,1.32663 0.521592,1.40142 0.128097,0.03119 0.244493,-0.241257 0.258649,-0.605412 0.02966,-0.760429 0.590346,-0.6228 0.757753,0.185985 0.05589,0.270046 0.198389,-0.07142 0.316624,-0.758814 l 0.21505,-1.249806 0.121737,1.294444 c 0.145724,1.549708 0.669526,1.15632 0.772617,-0.580268 0.03486,-0.589195 0.186649,-1.41273 0.33712,-1.830078 0.213397,-0.591982 0.286009,-0.311139 0.330303,1.277396 0.03411,1.219892 0.192695,2.015761 0.395765,1.985207 0.186405,-0.02805 0.414805,0.01979 0.50755,0.106325 0.09273,0.08652 0.220018,-0.224319 0.282924,-0.690767 0.108666,-0.80569 0.120878,-0.816948 0.244567,-0.225254 0.08983,0.42999 0.236209,0.582009 0.472628,0.490993 0.24893,-0.09582 0.359722,-0.0343 0.405671,0.225257 0.06259,0.353421 0.06583,0.352502 0.314716,-0.08927 l 0.251496,-0.446359 0.05755,0.508045 c 0.08612,0.75925 0.694059,0.706854 0.968546,-0.08348 0.318427,-0.916931 0.632122,-1.068501 0.971009,-0.46921 0.152727,0.27005 0.414506,0.671773 0.581726,0.892722 l 0.304088,0.401723 0.475157,-0.803448 c 0.976696,-1.651435 1.061731,-1.696731 1.173109,-0.624903 0.05608,0.540095 0.169785,0.847489 0.252628,0.683097 0.122716,-0.243598 0.281461,-0.290562 0.858092,-0.253855 0.530864,0.03379 0.707516,-0.0012 0.707516,-0.140027 0,-0.324367 0.511577,-0.07422 0.73986,0.361761 0.174597,0.33347 0.275557,0.199002 0.488729,-0.650976 0.147765,-0.589194 0.405817,-1.312299 0.573478,-1.606897 0.301556,-0.529877 0.305853,-0.526043 0.399476,0.35709 0.117133,1.104481 0.577474,2.349791 0.709497,1.919348 0.08973,-0.292309 0.114758,-0.298065 0.389449,-0.08927 0.247136,0.187837 0.303503,0.159565 0.355981,-0.178546 0.09573,-0.61726 0.675386,-0.181384 0.77162,0.580269 l 0.07896,0.624904 0.307761,-0.624904 c 0.169234,-0.343698 0.449342,-1.147146 0.622431,-1.785439 l 0.314717,-1.160537 0.0836,0.848085 c 0.0559,0.567556 0.187839,0.789027 0.398733,0.669539 0.212339,-0.120278 0.325432,-0.134843 0.346598,-0.04463 0.0268,0.114189 0.08007,0.115185 0.36195,0.0068 0.248746,-0.09567 0.36995,-0.06253 0.489537,0.133909 0.08742,0.143583 0.183646,-0.128251 0.21386,-0.604074 0.03003,-0.475823 0.219951,-0.889961 0.421655,-0.920306 0.233681,-0.03515 0.366723,0.224009 0.366723,0.714177 0,0.490165 0.133089,0.749326 0.366723,0.714176 0.217237,-0.03269 0.387106,0.08344 0.416661,0.284862 0.0359,0.243854 0.09648,0.276909 0.214433,0.116861 0.273759,-0.371469 0.828497,-0.42316 0.910123,-0.08481 0.04091,0.169395 0.172477,-0.194166 0.292386,-0.807911 l 0.218054,-1.115901 0.110908,1.026628 c 0.265316,2.45634 1.086737,1.073878 1.188432,-2.000189 l 0.0505,-1.526055 0.468442,1.651533 c 0.257661,0.908342 0.514254,2.113514 0.570251,2.67816 0.08528,0.859631 0.132874,0.932238 0.292797,0.446361 l 0.190972,-0.580268 0.220107,0.75881 c 0.216398,0.74596 0.222526,0.738402 0.362211,-0.446359 l 0.142063,-1.205171 0.21918,1.071262 0.219222,1.071264 0.123549,-1.026627 0.123548,-1.026627 0.281571,0.653497 c 0.154888,0.359421 0.38003,0.677454 0.500316,0.706736 0.120274,0.02929 0.221207,-0.686602 0.224324,-1.590855 0.0038,-1.094483 0.124434,-1.599327 0.361073,-1.510183 0.201987,0.07609 0.357918,0.993877 0.361108,2.125479 0.0038,1.304643 0.132136,1.97254 0.37233,1.936397 0.201699,-0.03033 0.378347,-0.323965 0.392511,-0.652492 0.03486,-0.80601 0.630828,-1.150171 0.725296,-0.418773 0.05683,0.439945 0.11916,0.487789 0.34908,0.267817 0.242773,-0.232245 0.294518,-0.202603 0.389425,0.22318 0.108693,0.487596 0.111082,0.486361 0.344021,-0.178545 l 0.234589,-0.669538 0.122716,0.75881 c 0.122488,0.757544 0.123441,0.756644 0.559511,-0.535631 l 0.436842,-1.294444 0.06166,0.892721 c 0.06334,0.917696 0.292165,1.294444 0.78621,1.294444 0.461342,0 0.689735,-0.492252 0.99415,-2.142529 l 0.288136,-1.562261 0.230156,0.937357 c 0.126595,0.515545 0.261949,1.419424 0.300849,2.008619 0.04558,0.690584 0.182697,1.007817 0.385871,0.89272 0.173339,-0.0982 0.329309,-0.419578 0.346588,-0.714176 0.03811,-0.651608 0.739202,-0.505188 0.747962,0.156227 0.0038,0.233222 0.1597,0.424043 0.347982,0.424043 0.188303,0 0.41113,0.110471 0.495146,0.245496 0.08687,0.13955 0.192274,0.0336 0.24427,-0.245496 0.07292,-0.390955 0.151314,-0.445522 0.385098,-0.267817 0.184285,0.140057 0.3233,-0.225687 0.373325,-0.981993 0.09246,-1.397962 0.481139,-1.096866 0.925895,0.717232 0.160473,0.65442 0.389711,1.037144 0.577913,0.964849 0.171596,-0.06591 0.314504,-0.288182 0.317584,-0.493959 0.0038,-0.205775 0.170624,-0.398964 0.37233,-0.429309 0.201698,-0.03033 0.378345,-0.323965 0.3925,-0.652491 0.04344,-1.006267 0.647523,-0.357156 0.731835,0.786398 0.04167,0.564646 0.14973,0.926199 0.240199,0.803447 0.09048,-0.122747 0.315527,-0.261343 0.500136,-0.307986 0.184641,-0.04665 0.335662,-0.344591 0.335662,-0.662101 0,-0.317511 0.07104,-0.560005 0.157847,-0.538879 0.144914,0.03529 0.520224,1.096659 0.559099,1.58119 0.02418,0.303404 0.749941,0.142053 0.749941,-0.166763 0,-0.331681 0.633692,-0.344584 0.83752,-0.01705 0.08398,0.135023 0.196778,-0.156223 0.250585,-0.64722 0.05374,-0.490997 0.218385,-1.153843 0.365728,-1.472989 l 0.267965,-0.580269 0.130258,0.669541 c 0.07159,0.368247 0.165107,0.790057 0.207681,0.937355 0.04259,0.147299 0.108962,0.428506 0.147494,0.624904 l 0.07003,0.357088 0.483408,-0.357088 0.483453,-0.357087 0.02826,0.34004 c 0.01546,0.18702 0.18071,0.317088 0.367161,0.289039 0.186403,-0.02805 0.414799,0.0198 0.507538,0.106325 0.09272,0.08652 0.187685,-0.06028 0.21108,-0.326238 0.04844,-0.549992 0.423964,-0.542207 0.798024,0.01653 0.211123,0.315344 0.268989,0.252394 0.350289,-0.381064 l 0.09745,-0.758811 0.437169,0.714175 c 0.36342,0.593639 0.468603,0.661441 0.623251,0.401725 0.167335,-0.280993 0.196336,-0.267511 0.288128,0.133906 0.09161,0.400574 0.130808,0.418889 0.382011,0.178546 0.153984,-0.147299 0.308998,-0.528937 0.344495,-0.848085 0.03561,-0.319147 0.201039,-0.740959 0.367933,-0.937357 0.258062,-0.303724 0.310176,-0.243689 0.348754,0.401725 0.0586,0.97986 0.421034,1.704402 0.822407,1.644012 0.174222,-0.02621 0.344504,-0.336532 0.378384,-0.689607 0.03812,-0.397496 0.11806,-0.507919 0.209733,-0.289977 0.107351,0.255135 0.240171,0.316541 0.482824,0.223183 0.227844,-0.08767 0.350398,0.02797 0.383739,0.362198 0.04026,0.403309 0.09627,0.443167 0.313619,0.223179 l 0.26463,-0.267817 0.160207,0.312453 c 0.119577,0.233133 0.257067,0.119816 0.541533,-0.446359 0.308968,-0.614932 0.431487,-0.708032 0.646128,-0.490997 0.145666,0.147299 0.490197,0.448592 0.76564,0.669541 0.421107,0.337758 0.506406,0.361793 0.535897,0.150956 0.01986,-0.142783 0.193003,-0.227007 0.401771,-0.195594 0.223152,0.03357 0.383406,-0.112926 0.409262,-0.374136 0.02343,-0.236121 0.110304,-0.348965 0.193159,-0.250767 0.08276,0.09819 0.346587,0.411004 0.586161,0.695125 0.381871,0.452901 0.478721,0.491416 0.785525,0.312452 0.331141,-0.193178 0.363669,-0.187368 0.606517,0.108329 0.141134,0.171847 0.278338,0.234472 0.304888,0.139164 0.04633,-0.166222 0.06817,-0.166667 0.536184,-0.01089 0.268367,0.08934 0.887209,0.167318 1.375202,0.173288 1.251951,0.01532 1.251951,0.363482 0,0.378799 -0.487993,0.006 -1.092458,0.07916 -1.343219,0.162646 -0.425916,0.141795 -0.46732,0.141079 -0.628744,-0.01089 -0.09899,-0.09317 -0.190952,-0.04096 -0.21534,0.12222 -0.05365,0.359564 -0.76245,0.485415 -0.813496,0.144447 -0.03561,-0.23703 -0.05608,-0.233651 -0.375082,0.06168 -0.185633,0.171849 -0.47938,0.493229 -0.652767,0.714176 l -0.31523,0.401724 -0.04316,-0.42931 c -0.02642,-0.261183 -0.186779,-0.407707 -0.40988,-0.374141 -0.209292,0.03149 -0.378673,-0.05247 -0.394595,-0.195594 -0.02751,-0.247106 -0.03516,-0.246205 -0.522207,0.06168 -0.271854,0.17185 -0.506807,0.416232 -0.52217,0.543073 -0.06147,0.50857 -0.60132,0.325351 -0.984867,-0.334285 -0.280652,-0.482686 -0.436329,-0.602849 -0.501783,-0.387331 l -0.09492,0.312453 -0.279956,-0.267817 c -0.248518,-0.237761 -0.284789,-0.219639 -0.3233,0.161495 -0.02456,0.242198 -0.193379,0.406745 -0.387517,0.377535 -0.189296,-0.02848 -0.409073,0.09971 -0.488428,0.284868 -0.08184,0.190861 -0.171,0.05865 -0.206004,-0.305313 -0.03377,-0.353076 -0.204746,-0.663489 -0.379666,-0.689805 -0.428287,-0.06442 -0.773006,0.600345 -0.824313,1.589714 -0.03486,0.67406 -0.09408,0.752168 -0.345564,0.456218 -0.166894,-0.196397 -0.329385,-0.618209 -0.361106,-0.937355 -0.03154,-0.319148 -0.189826,-0.6807 -0.351321,-0.80345 -0.249516,-0.189681 -0.306319,-0.162883 -0.378421,0.178545 -0.08481,0.401515 -0.085,0.401561 -0.326454,0.08927 -0.212468,-0.274785 -0.282996,-0.231739 -0.584917,0.357088 l -0.343323,0.66954 -0.216377,-0.714177 c -0.118959,-0.392796 -0.249114,-0.573572 -0.289197,-0.401723 -0.131626,0.564332 -0.778588,0.633753 -0.831977,0.08927 -0.02642,-0.270047 -0.124018,-0.420202 -0.21673,-0.333678 -0.09271,0.08652 -0.321136,0.13437 -0.507542,0.106325 -0.186448,-0.02806 -0.356269,0.08194 -0.377426,0.244403 l -0.03851,0.295402 -0.461256,-0.357088 c -0.434127,-0.336082 -0.479753,-0.278313 -0.775468,0.981994 -0.283743,1.209201 -0.337793,1.282798 -0.557567,0.758811 -0.133854,-0.319147 -0.262684,-0.978645 -0.286258,-1.465549 -0.02343,-0.486904 -0.128205,-0.8645 -0.232581,-0.8391 -0.104333,0.0254 -0.331737,0.283173 -0.505338,0.572829 l -0.315675,0.526647 -0.04474,-0.597317 c -0.05192,-0.693202 -0.76102,-0.936803 -0.810306,-0.278354 -0.01766,0.236121 -0.160628,0.630174 -0.317695,0.875671 l -0.2856,0.446362 -0.04899,-0.540097 c -0.0268,-0.297052 -0.200046,-0.57826 -0.38469,-0.624904 -0.184618,-0.04665 -0.40967,-0.18524 -0.50014,-0.307988 -0.09048,-0.122747 -0.189186,0.218715 -0.219422,0.758811 -0.07095,1.267723 -0.497378,1.673944 -0.843451,0.803449 -0.311753,-0.784187 -0.836826,-1.543755 -1.113775,-1.611174 -0.116356,-0.02833 -0.329643,0.443122 -0.473948,1.047654 -0.412899,1.729505 -0.815953,2.019069 -0.908627,0.652792 -0.04974,-0.733376 -0.186801,-1.078389 -0.372368,-0.937356 -0.227773,0.173145 -0.314941,0.103094 -0.388836,-0.312452 -0.06057,-0.340785 -0.149041,-0.430091 -0.243137,-0.245499 -0.08137,0.159575 -0.302506,0.290135 -0.491406,0.290135 -0.188941,0 -0.346,0.190819 -0.349117,0.424042 -0.0085,0.661414 -0.709785,0.807833 -0.74796,0.156225 -0.0172,-0.294595 -0.173229,-0.615976 -0.346589,-0.714175 -0.201986,-0.114444 -0.339883,0.222116 -0.384002,0.937355 -0.03785,0.613747 -0.173516,1.517626 -0.301436,2.008622 l -0.232581,0.892719 -0.273649,-1.572461 c -0.281126,-1.615611 -0.526317,-2.132327 -1.011706,-2.132327 -0.501709,0 -0.720274,0.387846 -0.72537,1.287004 -0.0038,0.486906 -0.07217,0.868542 -0.154293,0.848085 -0.08212,-0.02046 -0.26525,-0.599611 -0.406981,-1.287005 -0.141734,-0.687396 -0.322092,-1.266546 -0.400796,-1.287005 -0.07877,-0.02046 -0.172237,0.300922 -0.207857,0.714175 l -0.06473,0.751375 -0.237232,-0.624906 -0.237192,-0.624903 -0.108143,0.490996 c -0.09373,0.425529 -0.145484,0.455288 -0.388103,0.22318 -0.231284,-0.221279 -0.293819,-0.174744 -0.359858,0.267815 -0.06155,0.412513 -0.147435,0.484332 -0.373586,0.312453 -0.161466,-0.122749 -0.31255,-0.444129 -0.33577,-0.714176 -0.02305,-0.270049 -0.20214,-0.551254 -0.397673,-0.624904 -0.235287,-0.08864 -0.357365,0.550922 -0.361069,1.891759 -0.0038,1.252635 -0.145604,2.046726 -0.372366,2.080845 -0.239323,0.03602 -0.366723,-0.509907 -0.366723,-1.571869 0,-0.894876 -0.08443,-1.606489 -0.187619,-1.581368 -0.103205,0.02512 -0.329314,0.343151 -0.502518,0.706736 l -0.314866,0.661063 -0.121348,-0.981993 -0.12132,-0.981993 -0.219223,1.071265 -0.21918,1.071262 -0.142063,-1.205172 c -0.141,-1.196066 -0.143835,-1.199437 -0.372192,-0.446359 l -0.230042,0.758812 -0.133304,-0.580267 c -0.09539,-0.415152 -0.205561,-0.211931 -0.387217,0.714176 -0.139663,0.711943 -0.373289,1.897029 -0.519241,2.633525 -0.145949,0.736496 -0.332508,1.355816 -0.414579,1.376274 -0.08204,0.02046 -0.149221,-0.646178 -0.149221,-1.481418 z M 71.91468,84.779335 c 0,-0.122747 0.08322,-0.172964 0.18497,-0.111583 0.101715,0.06137 0.101715,0.161805 0,0.223179 -0.101716,0.06137 -0.18497,0.01112 -0.18497,-0.111596 z"
     style="fill:#ea9d34;fill-opacity:1;stroke-width:0.180938"
     id="path1-7" /></svg>
