<?xml version="1.0" encoding="UTF-8" standalone="no"?>
<svg
   viewBox="0 0 24 24"
   fill="none"
   stroke="#e0def4"
   stroke-width="2"
   stroke-linecap="round"
   stroke-linejoin="round"
   version="1.1"
   id="svg9"
   sodipodi:docname="user.svg"
   inkscape:version="1.4.3 (0d15f75042, 2025-12-25)"
   xml:space="preserve"
   xmlns:inkscape="http://www.inkscape.org/namespaces/inkscape"
   xmlns:sodipodi="http://sodipodi.sourceforge.net/DTD/sodipodi-0.dtd"
   xmlns="http://www.w3.org/2000/svg"
   xmlns:svg="http://www.w3.org/2000/svg"><defs
     id="defs9"><clipPath
       clipPathUnits="userSpaceOnUse"
       id="clipPath19"><circle
         style="fill:none;fill-opacity:1;fill-rule:evenodd;stroke:#000000;stroke-width:6.73766;stroke-linecap:round;stroke-linejoin:round;stroke-dasharray:none"
         id="circle19"
         cx="67.858459"
         cy="12.063869"
         r="27.836391" /></clipPath><clipPath
       clipPathUnits="userSpaceOnUse"
       id="clipPath2"><circle
         style="fill:none;fill-opacity:1;fill-rule:evenodd;stroke:#000000;stroke-width:0.7;stroke-linecap:round;stroke-linejoin:round;stroke-dasharray:none"
         id="circle3"
         cx="12"
         cy="10.707102"
         r="14.451495" /></clipPath></defs><sodipodi:namedview
     id="namedview9"
     pagecolor="#ffffff"
     bordercolor="#000000"
     borderopacity="0.25"
     inkscape:showpageshadow="2"
     inkscape:pageopacity="0.0"
     inkscape:pagecheckerboard="0"
     inkscape:deskcolor="#d1d1d1"
     inkscape:zoom="5.6568543"
     inkscape:cx="45.343222"
     inkscape:cy="6.2755726"
     inkscape:window-width="1894"
     inkscape:window-height="1021"
     inkscape:window-x="10"
     inkscape:window-y="43"
     inkscape:window-maximized="1"
     inkscape:current-layer="svg9" /><path
     style="fill:#ea9d34;fill-opacity:1;stroke:none;stroke-width:0.138298"
     d="m 6.9245938,28.554032 c -0.3529171,-0.08317 -0.9505149,-0.392669 -0.9505149,-0.492266 0,-0.198857 0.786631,-4.176064 0.8370964,-4.232369 0.033871,-0.03778 0.2848034,-0.0307 0.6268102,0.01765 0.4723174,0.0668 0.5867244,0.06427 0.6657118,-0.01471 0.052508,-0.0525 0.1340645,-0.397298 0.1814447,-0.767089 l 0.086066,-0.67171 -0.1658354,-0.06305 c -0.091209,-0.03466 -0.2493795,-0.06523 -0.3514918,-0.0679 -0.4322894,-0.01133 -0.446612,-0.06465 -0.1404646,-0.523114 l 0.2830663,-0.423893 0.5273584,-0.08493 c 0.2900476,-0.04671 0.8153528,-0.1891 1.1673462,-0.316422 l 0.6399899,-0.2315 -0.03394,0.256452 c -0.01869,0.141046 -0.06699,0.59874 -0.107371,1.017088 -0.07587,0.785814 -0.3452384,2.38412 -0.5244369,3.111698 -0.3015283,1.22427 -0.8378888,2.450026 -1.3127647,3.000081 -0.4183047,0.484529 -0.8340365,0.626015 -1.4280656,0.486011 z M 9.8142836,22.371133 C 9.9423405,22.170167 9.8288626,21.92167 9.609053,21.92167 c -0.1600825,0 -0.3158328,0.165824 -0.3158328,0.336256 0,0.114389 0.2172459,0.29438 0.328589,0.272248 0.057395,-0.01145 0.1440112,-0.08298 0.1924744,-0.159041 z m 6.3142474,6.018961 c -0.933811,-0.634541 -1.767663,-2.979752 -2.090898,-5.880661 -0.1974,-1.771565 -0.202091,-1.855932 -0.100712,-1.811696 0.654213,0.285487 1.05041,0.416194 1.583299,0.522343 0.44787,0.08921 0.65614,0.16327 0.705067,0.2507 0.03819,0.06825 0.178785,0.245113 0.312424,0.39304 0.133641,0.147921 0.22771,0.284225 0.209041,0.302894 -0.01868,0.01867 -0.217515,0.0572 -0.441877,0.08562 l -0.407936,0.05166 0.004,0.709191 c 0.005,0.922902 0.0093,0.927167 0.812304,0.831983 0.334806,-0.03968 0.623482,-0.05742 0.641496,-0.03938 0.01803,0.01803 0.218265,0.993945 0.444999,2.168731 0.466807,2.418703 0.484153,2.194977 -0.189714,2.447102 -0.537724,0.201187 -1.158354,0.187987 -1.481376,-0.03151 z m -1.399928,-6.08666 c 0.247916,-0.103579 0.264549,-0.243466 0.02896,-0.243466 -0.220155,0 -0.347319,0.07866 -0.347319,0.214842 0,0.157452 0.0084,0.158194 0.318367,0.02864 z m -2.352014,5.01972 c -0.01368,-0.02333 -0.04749,-0.182476 -0.07516,-0.353622 -0.06675,-0.412992 -0.230293,-0.801928 -0.303192,-0.721017 -0.03176,0.03525 -0.09665,0.254417 -0.144197,0.487025 -0.04754,0.232607 -0.110597,0.462028 -0.140145,0.509826 -0.04084,0.06608 -0.283433,0.0076 -1.012461,-0.243961 C 10.174123,26.81943 9.7159169,26.647256 9.6832012,26.6188 c -0.076933,-0.06693 0.1505674,-0.75565 0.2496086,-0.75565 0.041401,0 0.2406952,0.09336 0.4428612,0.207448 0.202168,0.1141 0.399455,0.207445 0.438417,0.207445 0.03897,0 0.170114,-0.201313 0.291448,-0.447364 0.121333,-0.246051 0.253291,-0.459521 0.293238,-0.474376 0.03995,-0.01486 0.368243,-0.0079 0.729544,0.01519 l 0.656913,0.04219 0.219354,0.413096 c 0.120648,0.227208 0.252988,0.424315 0.294097,0.438013 0.0411,0.01371 0.272791,-0.08584 0.514859,-0.221215 l 0.440118,-0.246126 0.144713,0.39284 c 0.07958,0.21606 0.137663,0.399886 0.12905,0.4085 -0.06057,0.06057 -2.131193,0.757909 -2.15084,0.72436 z m -2.048927,-1.660056 -0.3831108,-0.25113 0.091648,-0.310309 c 0.172889,-0.585351 0.502249,-2.661529 0.547914,-3.453894 0.03933,-0.682495 0.07257,-0.843649 0.239389,-1.16078 0.178969,-0.34023 0.190992,-0.411483 0.157949,-0.936201 -0.01966,-0.312368 -0.08083,-0.731304 -0.135936,-0.930971 -0.05509,-0.199667 -0.144121,-0.526397 -0.197833,-0.726064 -0.287291,-1.067905 -0.8112433,-6.269953 -0.6599051,-6.551851 0.1311971,-0.244391 0.7505271,-0.778136 0.8559621,-0.737674 0.228042,0.08751 0.128543,0.431849 -0.231635,0.80163 l -0.340684,0.34977 0.160754,0.709359 c 0.289122,1.275785 0.718752,2.320963 1.364205,3.318762 l 0.30131,0.465795 0.28476,-0.465795 c 0.414504,-0.678019 0.737918,-1.350874 0.98236,-2.043765 0.246289,-0.698126 0.492232,-1.622336 0.492232,-1.849734 0,-0.09102 -0.144112,-0.307044 -0.350217,-0.524969 -0.280148,-0.296215 -0.340851,-0.401316 -0.3034,-0.525298 0.0932,-0.308514 0.165062,-0.29338 0.590798,0.124407 l 0.419923,0.412088 -0.04443,0.933507 c -0.09407,1.975798 -0.508145,5.272098 -0.701132,5.581333 -0.05256,0.08423 -0.09557,0.245576 -0.09557,0.358533 0,0.112955 -0.0335,0.292974 -0.07445,0.400039 -0.104376,0.272905 -0.136324,1.390583 -0.04805,1.68136 0.04042,0.133112 0.131184,0.316229 0.201713,0.406929 0.08983,0.11551 0.128442,0.28122 0.128907,0.553192 0.0015,0.825208 0.320289,3.076212 0.547246,3.863144 0.06866,0.238085 0.01121,0.307082 -0.554216,0.665676 l -0.179188,0.113636 -0.455209,-0.709536 c -0.25037,-0.390247 -0.55326,-0.844746 -0.673099,-1.010003 l -0.217889,-0.300463 -0.625452,0.95738 c -0.344004,0.526555 -0.645052,0.976646 -0.669002,1.000199 -0.02395,0.02354 -0.215945,-0.07018 -0.426655,-0.208302 z m 1.973533,-2.877068 c 0,-0.184185 -0.02315,-0.207448 -0.206499,-0.207448 -0.144231,0 -0.21376,0.03771 -0.230581,0.125049 -0.04319,0.224292 0.04436,0.335018 0.246528,0.311763 0.160755,-0.01851 0.190552,-0.05435 0.190552,-0.229364 z m -0.0484,-1.223936 c 0.115475,-0.115463 0.103545,-0.297917 -0.02652,-0.405872 -0.215567,-0.178908 -0.485698,0.167847 -0.302614,0.388449 0.101336,0.122098 0.218291,0.12829 0.329156,0.01742 z m 0.06158,-1.413117 c 0.05836,-0.152081 -0.06306,-0.33137 -0.242526,-0.358125 -0.10734,-0.01599 -0.157625,0.02424 -0.18961,0.151657 -0.02395,0.09538 -0.02323,0.206314 0.0019,0.246511 0.07083,0.114608 0.382267,0.08563 0.4305,-0.04005 z m 0.0084,-1.533816 c -0.01796,-0.155257 -0.05526,-0.185508 -0.228877,-0.185508 -0.1674,0 -0.212051,0.03264 -0.231302,0.168998 -0.03118,0.221049 0.162524,0.372787 0.34872,0.27314 0.09104,-0.04872 0.12614,-0.129539 0.111464,-0.25663 z m 0.01315,-1.32043 c 0,-0.189985 -0.192224,-0.326069 -0.334255,-0.236634 -0.163769,0.103127 -0.18578,0.309861 -0.04403,0.41351 0.152285,0.111349 0.37829,0.0056 0.37829,-0.176876 z m -0.326509,7.591908 c -0.106238,-0.106226 -0.03234,-0.268166 0.122379,-0.268166 0.169929,0 0.23537,0.121059 0.132465,0.245049 -0.10041,0.120986 -0.152275,0.125692 -0.254844,0.02312 z M 5.3965491,23.548903 C 4.8213383,23.150875 4.2230532,22.582791 3.9124864,22.139759 3.7484245,21.905711 3.6287443,21.714221 3.6465378,21.714221 c 0.051985,0 0.868206,0.469713 1.1066469,0.636849 0.1200327,0.08412 0.3901718,0.294213 0.6003092,0.466836 0.2101374,0.172629 0.4529467,0.360543 0.5395768,0.417589 0.1523816,0.100354 0.1538461,0.111037 0.045044,0.328459 -0.061851,0.123601 -0.1335161,0.22302 -0.1592575,0.220923 -0.02573,-0.0022 -0.1977771,-0.108285 -0.3823081,-0.235974 z m 12.7541799,0.02112 c -0.04191,-0.120262 -0.06831,-0.225084 -0.05863,-0.232939 0.51741,-0.419861 2.300171,-1.692015 2.371149,-1.692015 0.08151,0 -0.285898,0.458311 -0.796891,0.994067 -0.439359,0.460649 -1.280199,1.149548 -1.403092,1.149548 -0.02,0 -0.07061,-0.0984 -0.112538,-0.218661 z M 7.1841861,23.556428 C 6.7179271,23.46776 6.7203003,23.474207 6.8959047,22.772375 l 0.083086,-0.332081 0.3430753,0.01253 c 0.1886878,0.0069 0.4485384,0.03234 0.5774424,0.05651 0.2316668,0.04346 0.2338473,0.0473 0.1889023,0.333201 -0.025004,0.159076 -0.076526,0.405919 -0.1144826,0.54854 -0.077708,0.291987 -0.099616,0.296574 -0.789742,0.165333 z m 8.9952099,0.01508 c -0.05613,-0.174848 -0.176502,-0.98364 -0.150298,-1.00984 0.01433,-0.01433 0.233383,-0.05538 0.486839,-0.09128 0.601879,-0.08523 0.68863,-0.03434 0.788406,0.462464 0.113718,0.566242 0.118274,0.556485 -0.283735,0.60731 -0.199666,0.02526 -0.463835,0.06376 -0.587037,0.08562 -0.155541,0.02758 -0.233222,0.01099 -0.254175,-0.05427 z m 1.161888,-1.37613 C 17.193435,22.079703 16.988625,21.885221 16.886153,21.7632 l -0.186311,-0.221854 0.462909,-0.104851 0.46291,-0.104851 0.02115,-0.290741 c 0.02663,-0.365993 -0.08609,-0.987309 -0.236716,-1.304752 -0.06346,-0.13373 -0.223449,-0.316581 -0.355534,-0.406333 l -0.240151,-0.163191 0.267321,-0.07422 c 0.535977,-0.148819 0.807926,-0.06915 1.615721,0.473272 0.20918,0.140463 0.426996,0.281635 0.484044,0.313719 0.1749,0.09837 -0.293796,-0.382719 -0.587765,-0.603301 l -0.276594,-0.207548 0.421583,0.04142 c 0.23187,0.02279 0.667507,0.132906 0.968083,0.244727 0.836379,0.311163 0.840521,0.312177 0.615652,0.150532 -0.326538,-0.234715 -0.864788,-0.500009 -1.279254,-0.63052 l -0.38032,-0.119753 0.267904,-0.05096 c 0.381588,-0.07256 1.117001,0.0054 1.584085,0.168239 0.219929,0.07661 0.379479,0.106296 0.35456,0.06597 -0.07739,-0.125235 -0.734429,-0.39931 -1.169317,-0.48777 -0.377277,-0.07674 -0.396084,-0.0886 -0.207448,-0.130847 0.319583,-0.07157 0.874795,-0.07 1.129979,0.0034 0.197512,0.05664 0.218336,0.0518 0.146926,-0.03428 -0.04576,-0.05516 -0.205862,-0.137008 -0.355781,-0.181923 -0.204127,-0.06116 -0.246483,-0.09626 -0.168676,-0.139807 0.125902,-0.07047 0.653149,0.0402 1.069871,0.224523 0.418727,0.185227 0.249238,-0.0194 -0.207964,-0.251101 -0.48423,-0.245379 -1.01554,-0.231071 -1.562146,0.04207 -0.230636,0.115256 -0.436894,0.255279 -0.458338,0.311168 -0.05679,0.14799 -0.234259,0.124326 -0.285813,-0.03811 -0.02438,-0.07685 -0.280721,-0.627301 -0.569619,-1.223223 l -0.525276,-1.0835 -0.09453,0.272432 c -0.112482,0.324201 -0.342087,1.495381 -0.401705,2.049054 l -0.04238,0.393648 -0.374507,0.08381 -0.374508,0.08382 -0.337891,-0.316058 c -0.185844,-0.173846 -0.505391,-0.398842 -0.710106,-0.500001 -0.204718,-0.101163 -0.484137,-0.3112 -0.620932,-0.46675 -0.299532,-0.340604 -0.477347,-0.324286 -0.477347,0.04381 0,0.316312 0.244478,0.599357 0.764745,0.885375 0.225934,0.124204 0.410788,0.249765 0.410788,0.279017 0,0.117947 -0.515065,0.04227 -0.859222,-0.126258 -0.373829,-0.183047 -0.731202,-0.466992 -0.731202,-0.580971 0,-0.03482 0.07623,-0.53922 0.169379,-1.120868 0.554193,-3.460187 0.620658,-5.470075 0.244993,-7.4086256 -0.07994,-0.4125155 -0.135675,-0.800257 -0.12385,-0.8616429 0.0125,-0.0649 0.303048,0.3021796 0.694206,0.8770489 l 0.672712,0.9886676 -0.180199,0.236249 -0.180194,0.23625 0.49243,0.2175 c 0.270839,0.119629 0.492433,0.256123 0.492433,0.303319 0,0.154603 -0.276646,1.437978 -0.424236,1.968058 -0.07941,0.285242 -0.405419,1.190269 -0.724443,2.011177 -0.319024,0.82091 -0.58004,1.513261 -0.58004,1.538563 0,0.02529 0.05767,0.046 0.128159,0.046 0.135994,0 0.61863,-0.953383 1.015158,-2.005315 0.107521,-0.285241 0.221288,-0.548475 0.25281,-0.58497 0.03151,-0.03649 0.329291,-0.130332 0.661707,-0.208534 0.565856,-0.13312 0.605789,-0.154242 0.626272,-0.331256 0.01204,-0.103985 0.01204,-0.18903 0,-0.188987 -0.01203,4.4e-5 -0.254867,0.04451 -0.539635,0.09882 -0.284767,0.05432 -0.530078,0.08642 -0.545137,0.07136 -0.01504,-0.01505 0.05544,-0.351768 0.156641,-0.748246 0.153229,-0.60024 0.387192,-1.7595 0.387542,-1.920219 5.2e-5,-0.02394 -0.186608,-0.113302 -0.414799,-0.198637 -0.387014,-0.144757 -0.509284,-0.279257 -0.345731,-0.380337 0.137611,-0.08505 0.05993,-0.284877 -0.279452,-0.7188186 -0.190217,-0.243225 -0.335057,-0.453017 -0.321867,-0.466207 0.01319,-0.01319 0.28613,0.0815 0.606531,0.210415 0.320405,0.128915 1.00263,0.3655456 1.516063,0.5258466 0.513427,0.1603 0.958091,0.314092 0.98814,0.341763 0.03005,0.02766 0.02016,0.20309 -0.02196,0.389823 -0.175299,0.777 -0.410636,2.593234 -0.406871,3.140044 l 0.0041,0.587763 0.194383,-0.968082 c 0.106909,-0.532446 0.26321,-1.403719 0.347329,-1.936165 0.08412,-0.532447 0.166648,-1.012507 0.183395,-1.066799 0.05528,-0.179223 0.196712,0.05834 0.511602,0.859348 0.164456,0.418355 0.495736,1.22236 0.736175,1.786683 0.240441,0.564323 0.437163,1.055215 0.437163,1.090868 0,0.03564 -0.08557,0.02159 -0.190158,-0.03126 -0.282501,-0.142741 -1.127182,-0.411049 -1.167409,-0.37082 -0.01918,0.01918 0.348414,0.226201 0.816915,0.460005 0.468505,0.233808 0.921615,0.502825 1.006915,0.597823 0.153374,0.170816 0.272975,0.487206 0.208527,0.551653 -0.01832,0.01832 -0.18544,-0.04311 -0.371383,-0.136498 -0.302094,-0.151732 -1.264112,-0.456439 -1.441071,-0.456439 -0.185483,0 0.295848,0.2227 1.117731,0.517143 l 0.913572,0.327298 0.351428,0.684157 c 0.193289,0.37629 0.326727,0.684146 0.296531,0.684127 -0.0302,-1.7e-5 -0.218595,-0.06225 -0.418669,-0.138299 -0.509459,-0.193634 -1.010832,-0.18059 -1.448883,0.0377 -0.532309,0.265261 -0.508737,0.378495 0.03985,0.1915 0.804257,-0.274139 1.518681,-0.186608 1.969125,0.241261 0.329602,0.31308 0.419196,0.552455 0.419196,1.119999 0,0.821786 -0.179791,1.052722 -1.307015,1.678832 -0.380319,0.211241 -0.924865,0.557937 -1.210103,0.770432 -0.466496,0.347521 -2.03615,1.215625 -2.198025,1.215625 -0.03567,0 -0.185838,-0.09465 -0.333687,-0.210327 z m 1.221858,-0.488585 c 0.05671,-0.10596 0.05725,-0.166468 0.0019,-0.221766 -0.102989,-0.10299 -0.316624,0.109695 -0.25956,0.258404 0.0581,0.151425 0.165116,0.136209 0.257619,-0.03663 z m 0.41092,-0.308132 c 0,-0.15635 -0.154889,-0.195615 -0.25134,-0.06371 -0.120733,0.165114 0.0081,0.356796 0.156792,0.233356 0.05199,-0.04316 0.09455,-0.119495 0.09455,-0.169644 z m 0.333969,-0.08204 c 0.06837,-0.132927 0.03512,-0.293881 -0.0607,-0.293881 -0.08816,0 -0.218019,0.267303 -0.168659,0.347169 0.06391,0.103406 0.160285,0.08101 0.229364,-0.05328 z m -3.180826,-4.304517 c 0.0019,-0.157146 -0.0034,-0.16029 -0.05739,-0.03455 -0.03268,0.07607 -0.05851,0.231649 -0.05739,0.345743 0.0019,0.202289 0.0034,0.203149 0.05739,0.03455 0.03045,-0.09509 0.05628,-0.250667 0.05739,-0.345747 z m -0.285162,-5.159769 c 0.02196,-0.06588 -0.396889,-0.302983 -0.535216,-0.302983 -0.153968,0 -0.04993,0.190497 0.157931,0.289186 0.244841,0.116242 0.341951,0.119793 0.377285,0.01381 z M 5.5246137,21.944892 C 5.1442942,21.732451 4.4597208,21.318311 4.0033397,21.024578 3.5469586,20.730849 2.9447233,20.371339 2.6650405,20.225671 1.9669767,19.86209 1.7986591,19.604034 1.767557,18.84969 1.746805,18.346182 1.763777,18.254662 1.9405302,17.917758 c 0.2436962,-0.464513 0.5416702,-0.635434 1.1866481,-0.68066 0.4464122,-0.03129 0.545359,-0.01029 1.360203,0.288557 0.095781,0.03515 0.074524,-0.0042 -0.06915,-0.127837 C 3.9270952,16.97506 3.14299,16.900005 2.5228268,17.216386 c -0.2851631,0.14548 -0.2935366,0.145973 -0.251906,0.0148 0.09516,-0.299818 0.607763,-1.164091 0.7390586,-1.246088 0.077054,-0.04812 0.5488404,-0.241751 1.0484185,-0.430291 0.8937695,-0.337311 1.2748447,-0.537513 0.8438745,-0.443348 -0.6758364,0.147675 -1.3235763,0.329578 -1.5018519,0.421768 -0.2665123,0.137819 -0.3126892,0.08049 -0.1723048,-0.213898 0.1320224,-0.276852 0.3671853,-0.433672 1.3522731,-0.901764 0.3934428,-0.186955 0.6823856,-0.350904 0.6420999,-0.364333 -0.060729,-0.02025 -1.0084708,0.241431 -1.3523313,0.37338 -0.054726,0.021 0.2556093,-0.783646 0.7094428,-1.839488 0.443694,-1.032242 0.8375874,-1.882509 0.8753185,-1.889476 0.03773,-0.007 0.1679978,0.547439 0.2894806,1.232011 0.3286692,1.852076 0.5601831,2.894085 0.5684476,2.558508 0.010903,-0.442607 -0.1952944,-2.06962 -0.3802061,-3.000124 -0.093616,-0.471075 -0.1599407,-0.866769 -0.1473916,-0.879316 0.012539,-0.01253 0.4569117,-0.162765 0.987472,-0.333812 0.53056,-0.171051 1.2427867,-0.4203656 1.582722,-0.5540346 0.3399391,-0.133672 0.6254729,-0.235636 0.6345186,-0.226589 0.00905,0.0091 -0.1507352,0.21842 -0.3550793,0.465266 C 8.2298065,10.448898 8.1982646,10.54114 8.3708162,10.731808 8.5075739,10.882921 8.5282093,10.86165 8.02439,11.088916 l -0.4044727,0.182455 0.048482,0.432859 c 0.067434,0.602054 0.4614473,2.117336 0.7624341,2.932129 0.3474946,0.940705 1.0740764,2.444874 1.1809824,2.444874 0.1601219,0 0.1724637,-0.130058 0.037505,-0.395236 C 9.5760718,16.542072 9.3098507,15.904214 9.0577193,15.268533 8.5429754,13.970751 8.1359585,12.573777 8.0754625,11.897188 L 8.035086,11.4456 8.5385669,11.220629 9.0420447,10.995658 8.8474838,10.792577 C 8.7404727,10.680885 8.6686013,10.548747 8.6877649,10.498936 8.7480459,10.342258 9.8334179,8.7304175 9.9108716,8.6825516 10.020163,8.6150056 10.003329,8.8406994 9.8291316,9.7783494 9.6944164,10.503477 9.6745953,10.829156 9.681366,12.20624 c 0.00429,0.874734 0.041955,1.83936 0.083676,2.143615 0.2329898,1.699099 0.435553,3.080009 0.491951,3.353717 0.08625,0.418622 -0.01548,0.560921 -0.6178238,0.864259 -0.7756733,0.390627 -1.1551169,0.311159 -0.5021288,-0.105162 0.5588708,-0.35631 0.6656421,-0.495766 0.6706251,-0.875895 0.00543,-0.415849 -0.1146087,-0.450179 -0.337813,-0.09659 -0.1738237,0.275357 -0.5059817,0.493958 -0.8915561,0.586757 -0.1079701,0.02599 -0.3499079,0.200844 -0.537636,0.388573 -0.3324129,0.332409 -0.3495558,0.340191 -0.6569063,0.298061 -0.3760997,-0.05156 -0.3952416,-0.08768 -0.5066175,-0.956281 -0.094172,-0.734446 -0.3403533,-1.832445 -0.4108508,-1.832445 -0.02722,0 -0.3110611,0.531106 -0.6307935,1.180235 -0.3197289,0.649125 -0.6091516,1.19743 -0.6431611,1.218447 -0.034017,0.021 -0.1443064,-0.02864 -0.2450955,-0.110331 -0.2768833,-0.224423 -0.9898623,-0.559511 -1.1906523,-0.559573 -0.3222,-9.9e-5 -0.8556638,0.199273 -1.1016461,0.411722 l -0.2420206,0.20903 0.3803192,-0.16693 c 0.2091743,-0.09181 0.5670193,-0.184705 0.7952116,-0.206435 l 0.4148922,-0.0395 -0.3630311,0.171279 c -0.199667,0.09421 -0.3630312,0.184095 -0.3630312,0.199753 0,0.01566 0.3222692,0.01204 0.7161554,-0.0081 0.4448968,-0.02272 0.732404,-0.01029 0.7590469,0.03286 0.025004,0.04045 -0.082226,0.08655 -0.2570195,0.110505 -0.3824345,0.05242 -0.994853,0.284552 -1.2181828,0.461744 -0.168772,0.133906 -0.1630371,0.133753 0.2420209,-0.0066 0.4510568,-0.156121 1.4230031,-0.250637 1.738825,-0.169091 0.1851299,0.0478 0.169528,0.0605 -0.252124,0.205235 -0.4959656,0.170238 -1.0655143,0.449346 -1.2792532,0.626898 l -0.1382986,0.114919 0.1382986,-0.04634 c 1.1513558,-0.385656 1.5775834,-0.509314 1.8670168,-0.541638 0.2862863,-0.03198 0.3231524,-0.02435 0.2143712,0.04432 -0.2582186,0.163005 -0.9496681,0.753661 -0.9186169,0.784713 0.017409,0.01742 0.2452118,-0.105949 0.5062433,-0.274108 0.9505549,-0.612377 1.2013743,-0.685965 1.7853657,-0.52383 l 0.2735334,0.07594 -0.2078113,0.08737 c -0.2717383,0.114249 -0.5579372,0.459997 -0.647384,0.782059 -0.039282,0.141436 -0.071595,0.479431 -0.071805,0.751093 -3.633e-4,0.558213 -0.0068,0.551529 0.5932623,0.622055 0.2059398,0.02421 0.3744356,0.0675 0.3744356,0.09619 0,0.02872 -0.188477,0.226673 -0.4188353,0.439947 -0.5413504,0.501196 -0.6481474,0.500927 -1.5519074,-0.004 z M 5.8655012,21.553624 C 5.8048822,21.395649 5.55919,21.402441 5.55919,21.562124 c 0,0.06845 0.037561,0.16203 0.083473,0.207941 0.1127428,0.112749 0.2849672,-0.05451 0.2228392,-0.216411 z m -0.4138928,-0.0406 c 0.058188,-0.09415 -0.032599,-0.282837 -0.1360744,-0.282837 -0.1043213,0 -0.1654684,0.133159 -0.1190806,0.259309 0.036928,0.100423 0.1984313,0.115313 0.255155,0.02351 z m -0.3996827,-0.25292 c 0.057632,-0.15019 -0.08868,-0.291429 -0.1934052,-0.186704 -0.088517,0.08852 -0.03369,0.295076 0.078329,0.295076 0.040418,0 0.092201,-0.04877 0.1150758,-0.108368 z M 8.058534,17.00166 C 8.001145,16.802291 7.991133,16.794125 7.986579,16.94295 c -0.00727,0.237616 0.083119,0.556124 0.1147844,0.404453 0.01312,-0.0628 -0.00618,-0.218372 -0.042831,-0.345742 z M 7.200515,21.212888 C 6.8504001,20.947023 6.8615754,19.915615 7.219195,19.489701 l 0.1352785,-0.161118 -0.050564,0.242021 c -0.027802,0.133111 -0.049005,0.440154 -0.047097,0.682315 0.0049,0.624021 0.058392,0.654057 1.0683346,0.600103 0.8982505,-0.04798 0.9111012,0.02733 0.033073,0.193892 -0.3041995,0.05771 -0.6403733,0.138106 -0.7470539,0.178665 -0.2453244,0.09328 -0.2722073,0.09245 -0.4106546,-0.01268 z m 8.71177,-0.119939 c -0.447938,-0.104145 -0.836901,-0.213484 -0.864358,-0.24299 -0.02748,-0.02951 0.328329,-0.03308 0.790632,-0.0079 0.710032,0.03853 0.857254,0.02893 0.948082,-0.0619 0.196759,-0.19676 0.223395,-0.708556 0.06472,-1.243492 -0.03604,-0.121476 -0.02733,-0.126533 0.07355,-0.04281 0.323277,0.268294 0.391699,1.35219 0.104794,1.660144 -0.16084,0.172635 -0.0979,0.17607 -1.117409,-0.06095 z m -1.86021,-0.625382 c -0.376187,-0.194221 -0.681522,-0.492779 -0.549105,-0.536916 0.0856,-0.02853 1.030945,0.551722 1.075096,0.659901 0.0546,0.133751 -0.09768,0.09814 -0.525991,-0.122985 z m -4.3779212,0.07013 c 0.02384,-0.03858 0.1615508,-0.130441 0.3060171,-0.204141 0.1444701,-0.07371 0.3601781,-0.216052 0.4793501,-0.316329 0.197461,-0.166152 0.216682,-0.170462 0.216682,-0.04859 0,0.171222 -0.165531,0.319181 -0.554434,0.495589 -0.3392087,0.153856 -0.5151437,0.182738 -0.4476152,0.07347 z M 9.5709514,20.071935 c 0.00182,-0.07932 1.0359776,-0.801096 1.0819846,-0.75509 0.09115,0.09115 -0.06231,0.260959 -0.474341,0.524862 -0.4187958,0.268231 -0.6100531,0.340695 -0.6076436,0.230228 z M 13.98653,19.817349 c -0.42208,-0.283153 -0.637756,-0.523339 -0.469933,-0.523339 0.08577,0 1.074477,0.661638 1.134977,0.759527 0.104839,0.16964 -0.245642,0.04517 -0.665044,-0.236188 z M 9.3305841,19.505964 c -0.021989,-0.03553 0.061766,-0.138523 0.1860784,-0.228822 0.1243176,-0.0903 0.4049518,-0.295596 0.6236375,-0.456216 0.341782,-0.251034 0.397604,-0.272996 0.397604,-0.156434 0,0.172978 -0.142468,0.313632 -0.6503461,0.64206 -0.4334595,0.280306 -0.4936575,0.301858 -0.5569738,0.199412 z M 14.186975,19.24027 c -0.483844,-0.295667 -0.686492,-0.51168 -0.579957,-0.618214 0.04739,-0.0474 1.085441,0.625446 1.256437,0.814396 0.226714,0.250514 -0.101012,0.155473 -0.67648,-0.196182 z M 1.5067543,16.58551 C 1.4089378,16.427237 1.454221,14.662199 1.5733777,13.988666 1.8270827,12.554602 2.5164824,10.929022 3.3996688,9.6823224 4.4136672,8.2509736 5.9894009,6.9372682 7.5886007,6.1899556 8.4268458,5.7982397 8.6533773,5.7442016 8.7094433,5.9225679 8.73183,5.9937608 8.7811323,6.1094937 8.8190238,6.1797548 8.9028744,6.3352358 8.9223172,6.3188707 8.4833151,6.4622761 7.932185,6.6423108 6.9407808,7.1778784 6.2346998,7.6770063 4.9465608,8.5875865 3.8937373,9.7989964 3.1903711,11.179892 c -0.6752407,1.325677 -0.9998793,2.502622 -1.0696647,3.877963 -0.037845,0.745786 -0.049876,0.794113 -0.2983811,1.1982 -0.1833889,0.298211 -0.2754705,0.394341 -0.315571,0.329455 z M 22.172194,16.243609 c -0.284752,-0.437241 -0.293883,-0.468752 -0.293883,-1.01446 0,-1.092216 -0.419028,-2.70511 -0.997124,-3.838047 -1.094182,-2.1443551 -2.455228,-3.5024548 -4.55463,-4.544778 -0.524351,-0.2603302 -0.98285,-0.4833146 -1.018893,-0.4955225 -0.03966,-0.013452 -0.03354,-0.1262614 0.01549,-0.285763 0.102504,-0.3335057 0.135918,-0.3270224 1.336615,0.2594 1.112692,0.5434408 1.866749,1.0904563 2.763779,2.0049454 1.192499,1.2156965 2.069903,2.6098761 2.555195,4.0601471 0.396695,1.185508 0.656808,3.079359 0.539505,3.928045 l -0.05216,0.377285 z M 12.001782,15.479071 c 0.01522,-0.107408 0.06891,-0.161119 0.161118,-0.161119 0.205936,0 0.185363,0.269928 -0.02281,0.299417 -0.134068,0.01897 -0.157287,-0.0042 -0.138298,-0.138298 z m 0.03434,-1.555619 c -0.09672,-0.09673 -0.04366,-0.299646 0.07838,-0.299646 0.162843,0 0.289193,0.130195 0.243049,0.250444 -0.03792,0.09882 -0.240752,0.129868 -0.321419,0.04919 z m -0.104723,-1.2095 C 11.890935,12.586848 11.806736,12.218357 11.744267,11.895085 11.681802,11.571817 11.560445,11.19841 11.47459,11.065301 10.686116,9.8428444 10.399604,9.128208 10.399604,8.3840023 v -0.453967 l 0.380712,0.4206958 c 0.582802,0.6440186 1.051308,0.8159486 1.72833,0.6342466 0.203013,-0.05448 0.40996,-0.2111342 0.777921,-0.5888472 l 0.501332,-0.5146127 -0.0011,0.3644994 c -0.0015,0.5382492 -0.178239,1.1951292 -0.459652,1.7084532 -0.585016,1.0671276 -0.766675,1.4462546 -0.814098,1.6990226 -0.05271,0.280977 -0.36829,1.133044 -0.456788,1.23333 -0.02823,0.03202 -0.08448,-0.04577 -0.124936,-0.172871 z M 11.609706,8.7445834 C 11.300059,8.5847168 10.690613,7.9579682 10.538341,7.6427957 10.291497,7.131887 10.169822,6.3893577 10.172845,5.4123815 c 0.0015,-0.5039209 -0.0082,-0.9162213 -0.02174,-0.9162213 -0.01351,0 -0.07605,0.099572 -0.138982,0.2212688 C 9.91807,4.8993133 9.9036873,5.0839269 9.931308,5.754661 9.949807,6.2034426 9.941018,6.5706241 9.911793,6.5706241 9.781367,6.5706241 9.5062595,6.128475 9.437659,5.8086049 9.340059,5.353503 9.342719,5.2409238 9.454706,5.0877793 9.530859,4.9836354 9.531393,4.9176195 9.457626,4.7115301 9.4084912,4.57406 9.3669331,4.3768142 9.3652651,4.2732045 9.3630872,4.135447 9.3064807,4.0559911 9.1547826,3.977545 8.9111591,3.8515632 8.8796027,3.7333368 9.1029214,3.7832394 9.2293907,3.8115182 9.2093985,3.774702 8.9960885,3.5866033 8.7564191,3.3752624 8.4916332,2.8506013 8.5826754,2.767441 c 0.020825,-0.01901 0.051156,0.00252 0.067423,0.047976 0.033217,0.092725 0.4931163,0.2632374 0.5517734,0.2045802 C 9.2226968,2.9992114 9.1739242,2.898548 9.093516,2.796334 8.9906306,2.6655363 8.9473319,2.5117777 8.9473319,2.2772178 V 1.9439403 l 0.1697313,0.1697285 c 0.1058961,0.1058995 0.248926,0.1697311 0.3803158,0.1697311 0.2335639,0 0.2565364,-0.040336 0.1150469,-0.2020034 C 9.5598765,2.0213537 9.4949368,1.9002964 9.4681158,1.8123839 9.4219435,1.6610384 9.4324631,1.654994 9.665584,1.6987295 c 0.1799226,0.033758 0.349131,0.00366 0.628351,-0.1121866 0.210165,-0.087111 0.382119,-0.1817544 0.382119,-0.2103267 0,-0.028565 -0.108909,-0.091333 -0.24202,-0.139465 -0.5086425,-0.1839272 -0.138088,-0.29648041 0.747911,-0.2271677 0.426033,0.033322 0.606629,0.025874 0.575929,-0.0238 -0.07016,-0.1135271 0.568837,-0.1725808 0.947998,-0.08761 0.384278,0.086118 0.671781,0.2217157 0.801498,0.3780148 0.04942,0.059563 0.151953,0.1082836 0.227834,0.1082836 0.07588,0 0.255692,0.117728 0.39958,0.2616128 0.223809,0.2238136 0.268733,0.3212264 0.310909,0.6742017 0.0343,0.2872891 0.09791,0.4650885 0.209363,0.5854588 0.183075,0.1977267 0.277967,0.5034748 0.196945,0.6345694 -0.03034,0.049083 -0.06382,0.2453321 -0.07441,0.4361129 -0.01052,0.190778 -0.05341,0.4920848 -0.09518,0.6695678 -0.05446,0.2314923 -0.05481,0.3621296 -0.0011,0.4622108 0.160409,0.2997255 0.01954,1.014623 -0.253735,1.2879245 -0.09598,0.095977 -0.193599,0.1745209 -0.216938,0.1745392 -0.02333,2.18e-5 -0.04243,-0.4278373 -0.04243,-0.9507945 0,-0.8394957 -0.01783,-0.9872685 -0.152226,-1.2620013 l -0.152208,-0.311171 0.04458,0.3803192 c 0.13484,1.1497827 -0.01367,2.5648485 -0.33533,3.1953722 C 13.373169,8.01414 12.979201,8.4226791 12.581052,8.6510535 12.18918,8.8758266 11.915022,8.902227 11.609695,8.7445915 Z M 11.021942,3.9284283 c 0.09508,-0.034891 0.318341,-0.185802 0.496136,-0.3353563 0.389059,-0.3272632 0.626797,-0.426453 0.874353,-0.3648086 0.164616,0.040998 0.175069,0.033654 0.0934,-0.065495 C 12.350755,2.9987815 11.946171,2.8856028 11.676134,2.9362615 11.54648,2.9605764 11.229557,3.080357 10.971862,3.202421 10.571887,3.3918793 10.428109,3.4239189 9.9892999,3.4213786 l -0.5140245,-0.00287 0.272004,0.1221729 c 0.3530226,0.1585623 0.6107436,0.1564471 1.0915036,-0.00898 0.384643,-0.1323346 0.390409,-0.1323745 0.320724,-0.00217 -0.03903,0.072928 -0.210415,0.2143133 -0.380858,0.3142011 -0.170443,0.099891 -0.309897,0.1948119 -0.309897,0.2109366 0,0.034376 0.305788,-0.035362 0.55319,-0.1261524 z M 13.11943,2.8548709 C 12.845541,2.2963127 12.218929,2.1380143 11.436834,2.4298067 10.306466,2.851535 10.348204,2.8318951 10.577151,2.83433 c 0.116666,0.00113 0.443396,-0.059242 0.726061,-0.1344096 0.910758,-0.2421956 1.445841,-0.144917 1.747908,0.3177593 0.189059,0.2895857 0.23567,0.1784969 0.06831,-0.1628088 z m 0.471483,-0.2527598 c -0.08687,-0.1963816 -0.235324,-0.3740361 -0.408097,-0.48837 -0.264525,-0.1750557 -0.912087,-0.33017 -1.16879,-0.2799695 -0.07024,0.013739 -0.323117,0.062734 -0.56193,0.1088828 -0.238809,0.046146 -0.447726,0.1057894 -0.464254,0.132534 -0.01653,0.026745 0.274231,0.033977 0.646134,0.016066 1.140354,-0.054911 1.757094,0.2294136 1.962071,0.9045492 0.07969,0.262456 0.0902,0.272283 0.109764,0.102609 0.01191,-0.1032022 -0.03981,-0.3265391 -0.114898,-0.4963033 z M 13.933354,2.1584828 C 13.831791,1.9687117 13.454134,1.6610602 13.32275,1.6610602 c -0.05984,0 0.02009,0.093357 0.177598,0.2074622 0.157517,0.1141048 0.324375,0.2682747 0.370791,0.3425995 0.107707,0.1724751 0.159324,0.1288058 0.06221,-0.052637 z"
     id="path1"
     clip-path="url(#clipPath2)"
     transform="matrix(0.94597838,0,0,0.94597838,0.64825949,-0.57133337)" /></svg>
